<?xml version="1.0" encoding="utf-8"?>
<!-- Generator: Adobe Illustrator 16.0.0, SVG Export Plug-In . SVG Version: 6.00 Build 0)  -->
<!DOCTYPE svg PUBLIC "-//W3C//DTD SVG 1.1//EN" "http://www.w3.org/Graphics/SVG/1.1/DTD/svg11.dtd">
<svg version="1.1" id="Layer_1" xmlns="http://www.w3.org/2000/svg" xmlns:xlink="http://www.w3.org/1999/xlink" x="0px" y="0px"
	 width="1399.539px" height="1396.539px" viewBox="0 0 1399.539 1396.539" enable-background="new 0 0 1399.539 1396.539"
	 xml:space="preserve">
<g id="Layer_1_1_" display="none">
	
		<linearGradient id="SVGID_1_" gradientUnits="userSpaceOnUse" x1="123.6006" y1="1134.3325" x2="829.1999" y2="428.7332" gradientTransform="matrix(1.1035 0.0463 -0.0463 -1.1035 221.497 1557.8909)">
		<stop  offset="0" style="stop-color:#000000;stop-opacity:0.5"/>
		<stop  offset="0.839" style="stop-color:#000000;stop-opacity:0"/>
	</linearGradient>
	<polygon display="inline" fill="url(#SVGID_1_)" points="1393.818,846.027 839.519,1400.324 125.923,686.727 582.52,34.729 	"/>
	<rect x="143.298" y="38.297" display="inline" fill="#D7E6F0" width="432.043" height="639.064"/>
	<path display="inline" fill="#B41C1C" d="M529,7H179c-36.269,0-65.625,29.378-65.625,65.625v568.75
		C113.375,677.644,142.753,707,179,707h350c36.225,0,65.625-29.4,65.625-65.625V72.625C594.625,36.356,565.225,7,529,7z
		 M550.875,641.375c0,12.053-9.822,21.875-21.875,21.875H179c-12.075,0-21.875-9.778-21.875-21.875v-43.837h393.75V641.375z
		 M550.875,575.663h-393.75V138.25h393.75V575.663z M550.875,116.375h-393.75v-43.75c0-12.075,9.8-21.875,21.875-21.875h350
		c12.053,0,21.875,9.8,21.875,21.875V116.375z M397.75,83.563c0,6.037-4.922,10.938-10.938,10.938h-65.625
		c-6.059,0-10.938-4.9-10.938-10.938l0,0c0-6.059,4.878-10.938,10.938-10.938h65.625C392.828,72.625,397.75,77.503,397.75,83.563
		L397.75,83.563z M375.875,630.35c0,6.017-4.922,10.938-10.938,10.938h-21.875c-6.038,0-10.938-4.922-10.938-10.938l0,0
		c0-6.059,4.9-10.938,10.938-10.938h21.875C370.953,619.412,375.875,624.29,375.875,630.35L375.875,630.35z"/>
</g>
<g id="Layer_3" display="none">
	
		<linearGradient id="SVGID_2_" gradientUnits="userSpaceOnUse" x1="83.1655" y1="1176.2222" x2="885.5624" y2="373.8251" gradientTransform="matrix(1 0 0 -1 219 1460.0381)">
		<stop  offset="0" style="stop-color:#000000;stop-opacity:0.5"/>
		<stop  offset="0.839" style="stop-color:#000000;stop-opacity:0"/>
	</linearGradient>
	<path display="inline" fill="url(#SVGID_2_)" d="M683.5,80.5L209.038,424.507C243.683,441.812,265.5,466.98,265.5,495
		c0,52.191-75.664,94.5-169,94.5c-31.68,0-61.319-4.879-86.659-13.359l802.395,802.396l582.801-582.799L683.5,80.5z"/>
	<path display="inline" fill="#B41C1C" d="M704,136.903c-25.754,11.421-53.431,19.142-82.482,22.613
		c29.649-17.773,52.423-45.917,63.146-79.454c-27.751,16.46-58.486,28.41-91.198,34.85c-26.195-27.911-63.521-45.35-104.826-45.35
		c-79.312,0-143.615,64.297-143.615,143.608c0,11.256,1.27,22.217,3.719,32.729c-119.355-5.991-225.177-63.164-296.008-150.053
		c-12.362,21.211-19.446,45.88-19.446,72.2c0,49.826,25.353,93.784,63.889,119.537c-23.542-0.746-45.686-7.206-65.047-17.963
		c-0.014,0.599-0.014,1.2-0.014,1.806c0,69.582,49.504,127.624,115.201,140.82c-12.049,3.281-24.738,5.039-37.836,5.039
		c-9.254,0-18.251-0.902-27.021-2.579c18.277,57.053,71.313,98.578,134.157,99.734c-49.15,38.521-111.074,61.478-178.361,61.478
		c-11.592,0-23.023-0.679-34.259-2.01c63.555,40.749,139.044,64.526,220.146,64.526c264.156,0,408.609-218.835,408.609-408.614
		c0-6.226-0.141-12.42-0.417-18.58c28.066-20.248,52.413-45.541,71.666-74.339L704,136.903z"/>
</g>
<g id="Layer_4" display="none">
	
		<linearGradient id="SVGID_3_" gradientUnits="userSpaceOnUse" x1="166.7622" y1="1117.4858" x2="872.3609" y2="411.8872" gradientTransform="matrix(1.0091 0.1407 -0.1407 -1.0091 329.3212 1450.068)">
		<stop  offset="0" style="stop-color:#000000;stop-opacity:0.5"/>
		<stop  offset="0.839" style="stop-color:#000000;stop-opacity:0"/>
	</linearGradient>
	<polygon display="inline" fill="url(#SVGID_3_)" points="1379.312,929.531 924.023,1384.818 116.465,573.165 568.015,118.234 	"/>
	<ellipse display="inline" fill="#D7E6F0" cx="352.319" cy="359.822" rx="279.028" ry="274.527"/>
	<path display="inline" fill="#B41C1C" d="M670.716,399.075c1.922-14.219,3.028-28.674,3.028-43.39
		c0-176.579-143.925-319.747-321.43-319.747c-17.642,0-34.938,1.449-51.77,4.211C270.367,20.484,234.451,9.023,195.801,9.023
		C89.813,9.023,4,94.893,4,200.848c0,38.552,11.346,74.367,30.885,104.438c-2.632,16.429-3.977,33.254-3.977,50.393
		c0,176.608,143.851,319.762,321.405,319.762c20.039,0,39.549-1.951,58.51-5.378c29.463,18.278,64.168,28.914,101.371,28.914
		c105.96,0,191.805-85.891,191.805-191.834C703.996,467.093,691.749,429.858,670.716,399.075L670.716,399.075z M382.355,591.338
		c-102.136,5.321-149.931-17.277-193.715-58.367c-48.897-45.892-29.255-98.237,10.582-100.899
		c39.815-2.658,63.721,45.135,84.971,58.428c21.224,13.245,101.984,43.422,144.64-5.343c46.452-53.085-30.89-80.556-87.581-88.87
		c-80.942-11.985-183.135-55.771-175.185-142.06c7.952-86.234,73.257-130.449,141.982-136.686
		c87.605-7.953,144.636,13.271,189.745,51.762c52.158,44.473,23.938,94.191-9.296,98.191c-33.102,3.977-70.279-73.15-143.269-74.309
		c-75.232-1.181-126.078,78.287-33.204,100.877c92.922,22.565,192.432,31.836,228.267,116.781
		c35.86,84.953-55.718,175.171-157.939,180.496H382.355z"/>
</g>
<path fill="#FFFFFF" d="M1217.995,237.375H177.428C81.652,237.375,4,315.071,4,410.803v563.64
	c0,95.776,77.652,173.428,173.428,173.428h1040.567c95.776,0,173.427-77.651,173.427-173.428v-563.64
	C1391.421,315.071,1313.771,237.375,1217.995,237.375z M90.714,464.999l303.455,227.624L90.714,920.249V464.999L90.714,464.999z
	 M1304.708,974.443c0,47.867-38.935,86.714-86.714,86.714H177.428c-47.822,0-86.714-38.847-86.714-86.714l339.572-254.722
	L619.668,861.8c23.109,17.256,50.554,26.014,78.042,26.014c27.446,0,54.89-8.714,78-26.014l189.426-142.079L1304.708,974.443z
	 M1304.708,920.247l-303.499-227.624l303.499-227.626V920.247z M749.696,827.117c-15.132,11.359-33.082,17.343-51.985,17.343
	s-36.898-6.027-52.028-17.343L90.714,410.803c0-47.822,38.892-86.714,86.714-86.714h1040.567c47.779,0,86.714,38.892,86.714,86.714
	L749.696,827.117z"/>
</svg>
