<?xml version="1.0" encoding="utf-8"?>
<!-- Generator: Adobe Illustrator 16.0.0, SVG Export Plug-In . SVG Version: 6.00 Build 0)  -->
<!DOCTYPE svg PUBLIC "-//W3C//DTD SVG 1.1//EN" "http://www.w3.org/Graphics/SVG/1.1/DTD/svg11.dtd">
<svg version="1.1" id="Layer_1" xmlns="http://www.w3.org/2000/svg" xmlns:xlink="http://www.w3.org/1999/xlink" x="0px" y="0px"
	 width="1399.539px" height="1396.539px" viewBox="0 0 1399.539 1396.539" enable-background="new 0 0 1399.539 1396.539"
	 xml:space="preserve">
<path fill="#FFFFFF" d="M1042.786,7H356.752c-71.091,0-128.631,57.583-128.631,128.631v1114.805
	c0,71.09,57.583,128.63,128.631,128.63h686.033c71.004,0,128.632-57.627,128.632-128.63V135.631
	C1171.417,64.541,1113.79,7,1042.786,7z M1085.663,1250.436c0,23.624-19.252,42.877-42.877,42.877H356.752
	c-23.668,0-42.877-19.167-42.877-42.877v-85.925h771.787V1250.436z M1085.663,1121.634H313.875V264.263h771.787V1121.634z
	 M1085.663,221.385H313.875v-85.754c0-23.668,19.208-42.877,42.877-42.877h686.033c23.625,0,42.877,19.208,42.877,42.877V221.385z
	 M785.523,157.071c0,11.833-9.646,21.439-21.439,21.439H635.453c-11.876,0-21.439-9.604-21.439-21.439l0,0
	c0-11.876,9.561-21.439,21.439-21.439h128.631C775.876,135.631,785.523,145.192,785.523,157.071L785.523,157.071z M742.646,1228.825
	c0,11.793-9.647,21.44-21.439,21.44H678.33c-11.835,0-21.439-9.647-21.439-21.44l0,0c0-11.875,9.604-21.438,21.439-21.438h42.877
	C732.999,1207.386,742.646,1216.948,742.646,1228.825L742.646,1228.825z"/>
<g id="Layer_3" display="none">
	
		<linearGradient id="SVGID_1_" gradientUnits="userSpaceOnUse" x1="83.1655" y1="1176.2222" x2="885.5624" y2="373.8251" gradientTransform="matrix(1 0 0 -1 219 1460.0381)">
		<stop  offset="0" style="stop-color:#000000;stop-opacity:0.5"/>
		<stop  offset="0.839" style="stop-color:#000000;stop-opacity:0"/>
	</linearGradient>
	<path display="inline" fill="url(#SVGID_1_)" d="M683.5,80.5L209.038,424.507C243.683,441.812,265.5,466.98,265.5,495
		c0,52.191-75.664,94.5-169,94.5c-31.68,0-61.319-4.879-86.659-13.359l802.395,802.396l582.801-582.799L683.5,80.5z"/>
	<path display="inline" fill="#B41C1C" d="M704,136.903c-25.754,11.421-53.431,19.142-82.482,22.613
		c29.649-17.773,52.423-45.917,63.146-79.454c-27.751,16.46-58.486,28.41-91.198,34.85c-26.195-27.911-63.521-45.35-104.826-45.35
		c-79.312,0-143.615,64.297-143.615,143.608c0,11.256,1.27,22.217,3.719,32.729c-119.355-5.991-225.177-63.164-296.008-150.053
		c-12.362,21.211-19.446,45.88-19.446,72.2c0,49.826,25.353,93.784,63.889,119.537c-23.542-0.746-45.686-7.206-65.047-17.963
		c-0.014,0.599-0.014,1.2-0.014,1.806c0,69.582,49.504,127.624,115.201,140.82c-12.049,3.281-24.738,5.039-37.836,5.039
		c-9.254,0-18.251-0.902-27.021-2.579c18.277,57.053,71.313,98.578,134.157,99.734c-49.15,38.521-111.074,61.478-178.361,61.478
		c-11.592,0-23.023-0.679-34.259-2.01c63.555,40.749,139.044,64.526,220.146,64.526c264.156,0,408.609-218.835,408.609-408.614
		c0-6.226-0.141-12.42-0.417-18.58c28.066-20.248,52.413-45.541,71.666-74.339L704,136.903z"/>
</g>
<g id="Layer_4" display="none">
	
		<linearGradient id="SVGID_2_" gradientUnits="userSpaceOnUse" x1="166.7622" y1="1117.4858" x2="872.3609" y2="411.8872" gradientTransform="matrix(1.0091 0.1407 -0.1407 -1.0091 329.3212 1450.068)">
		<stop  offset="0" style="stop-color:#000000;stop-opacity:0.5"/>
		<stop  offset="0.839" style="stop-color:#000000;stop-opacity:0"/>
	</linearGradient>
	<polygon display="inline" fill="url(#SVGID_2_)" points="1379.312,929.531 924.023,1384.818 116.465,573.165 568.015,118.234 	"/>
	<ellipse display="inline" fill="#D7E6F0" cx="352.319" cy="359.822" rx="279.028" ry="274.527"/>
	<path display="inline" fill="#B41C1C" d="M670.716,399.075c1.922-14.219,3.028-28.674,3.028-43.39
		c0-176.579-143.925-319.747-321.43-319.747c-17.642,0-34.938,1.449-51.77,4.211C270.367,20.484,234.451,9.023,195.801,9.023
		C89.813,9.023,4,94.893,4,200.848c0,38.552,11.346,74.367,30.885,104.438c-2.632,16.429-3.977,33.254-3.977,50.393
		c0,176.608,143.851,319.762,321.405,319.762c20.039,0,39.549-1.951,58.51-5.378c29.463,18.278,64.168,28.914,101.371,28.914
		c105.96,0,191.805-85.891,191.805-191.834C703.996,467.093,691.749,429.858,670.716,399.075L670.716,399.075z M382.355,591.338
		c-102.136,5.321-149.931-17.277-193.715-58.367c-48.897-45.892-29.255-98.237,10.582-100.899
		c39.815-2.658,63.721,45.135,84.971,58.428c21.224,13.245,101.984,43.422,144.64-5.343c46.452-53.085-30.89-80.556-87.581-88.87
		c-80.942-11.985-183.135-55.771-175.185-142.06c7.952-86.234,73.257-130.449,141.982-136.686
		c87.605-7.953,144.636,13.271,189.745,51.762c52.158,44.473,23.938,94.191-9.296,98.191c-33.102,3.977-70.279-73.15-143.269-74.309
		c-75.232-1.181-126.078,78.287-33.204,100.877c92.922,22.565,192.432,31.836,228.267,116.781
		c35.86,84.953-55.718,175.171-157.939,180.496H382.355z"/>
</g>
<g id="Layer_2" display="none">
	
		<linearGradient id="SVGID_3_" gradientUnits="userSpaceOnUse" x1="75.0444" y1="1177.4956" x2="906.1662" y2="346.3737" gradientTransform="matrix(1 0 0 -1 219 1460.0381)">
		<stop  offset="0" style="stop-color:#000000;stop-opacity:0.5"/>
		<stop  offset="0.839" style="stop-color:#000000;stop-opacity:0"/>
	</linearGradient>
	<polygon display="inline" fill="url(#SVGID_3_)" points="1387.314,851.517 863.019,1375.812 31.897,544.69 681.724,145.927 	"/>
	<rect x="37.288" y="142.298" display="inline" fill="#D7E6F0" width="639.063" height="399.04"/>
	<path display="inline" fill="#B41C1C" d="M616.5,113.375h-525c-48.322,0-87.5,39.2-87.5,87.5V485.25
		c0,48.322,39.178,87.5,87.5,87.5h525c48.322,0,87.5-39.178,87.5-87.5V200.875C704,152.575,664.822,113.375,616.5,113.375z
		 M47.75,228.219l153.103,114.844L47.75,457.907V228.219L47.75,228.219z M660.25,485.25c0,24.15-19.644,43.75-43.75,43.75h-525
		c-24.128,0-43.75-19.6-43.75-43.75l171.325-128.516l95.55,71.684c11.659,8.706,25.506,13.125,39.375,13.125
		c13.847,0,27.694-4.396,39.353-13.125l95.572-71.684L660.25,485.25z M660.25,457.906L507.125,343.062L660.25,228.218V457.906z
		 M380.228,410.919c-7.634,5.731-16.691,8.75-26.228,8.75s-18.616-3.041-26.25-8.75l-280-210.044c0-24.128,19.622-43.75,43.75-43.75
		h525c24.106,0,43.75,19.622,43.75,43.75L380.228,410.919z"/>
</g>
</svg>
