<?xml version="1.0" encoding="utf-8"?>
<!-- Generator: Adobe Illustrator 16.0.0, SVG Export Plug-In . SVG Version: 6.00 Build 0)  -->
<!DOCTYPE svg PUBLIC "-//W3C//DTD SVG 1.1//EN" "http://www.w3.org/Graphics/SVG/1.1/DTD/svg11.dtd">
<svg version="1.1" id="Layer_1" xmlns="http://www.w3.org/2000/svg" xmlns:xlink="http://www.w3.org/1999/xlink" x="0px" y="0px"
	 width="283.465px" height="120.873px" viewBox="0 0 283.465 120.873" enable-background="new 0 0 283.465 120.873"
	 xml:space="preserve">
<g id="Layer_1_1_">
	<path fill="#FFFFFF" d="M215.506,9.716l-1.526,1.731l9.767,8.706l-9.971,8.757l1.73,1.731l10.732-9.471v-1.985L215.506,9.716z"/>
	<path fill="#FFFFFF" d="M79.877,33.55l0.901,0.096l1.351-0.144l0.901-0.144l0.601-0.144l0.601-0.096l0.55-0.144l0.601-0.192
		l0.6-0.24l0.4-0.241l0.4-0.192l0.4-0.24l0.451-0.337l0.351-0.24l0.3-0.24l0.701-0.481l0.351-0.288l0.301-0.289l0.25-0.338l0.9-1.01
		l0.351-0.336l0.25-0.337l0.3-0.384l0.751-1.058l0.4-0.576l0.4-0.528l0.351-0.529l0.25-0.48l0.201-0.433l0.2-0.385l0.15-0.384
		v-0.529l-0.4-0.432l-0.65-0.096l-0.5,0.337l-0.351,0.625l-0.201,0.432l-0.3,0.481l-0.351,0.528l-0.149,0.289l-0.301,0.433
		l-0.5,0.672l-0.601,0.672l-0.301,0.289l-0.6,0.673l-0.701,0.577l-0.451,0.384l-0.501,0.384l-1.201,0.722l-0.55,0.24l-0.55,0.289
		l-0.451,0.192l-0.55,0.144l-0.451,0.096l-1.151,0.095h-1.101l-0.65-0.095l-0.451-0.096L79.83,30.28l-0.55-0.24l-0.351-0.288
		l-0.3-0.288l-0.301-0.385l-0.5-0.96l-0.15-0.481l-0.149-0.672l-0.05-0.77V25.57l0.05-0.48l0.049-0.625l0.1-0.577l0.1-0.481
		l0.15-0.576l0.15-0.626l0.15-0.433l0.149-0.384l0.15-0.433l0.201-0.384l0.201-0.337l0.25-0.385l0.201-0.432l0.301-0.529l0.45-0.528
		l0.351-0.433l0.351-0.337l0.4-0.432l0.401-0.289l0.35-0.24l0.401-0.288l0.35-0.241l0.451-0.192l0.601-0.192l0.6-0.096l0.451-0.048
		l0.451,0.048l0.451,0.145l0.5,0.337l0.35,0.481l0.101,0.433V17.4l-0.101,0.433l-0.099,0.384l-0.201,0.433l-0.301,0.433
		l-0.351,0.528l-0.25,0.433v0.481l0.5,0.337l0.801,0.192h0.801l0.65-0.097l0.4-0.191l0.351-0.288l0.3-0.338l0.351-0.432l0.351-0.48
		l0.25-0.385l0.201-0.385l0.15-0.432l0.15-0.625l0.049-0.577l-0.049-0.481l-0.15-0.577l-0.201-0.528l-0.201-0.433l-0.3-0.288
		l-0.301-0.337l-0.35-0.289l-0.351-0.24l-0.351-0.192l-0.45-0.144l-0.65-0.192l-0.751-0.193l-0.65-0.096l-0.451-0.048h-0.851
		l-0.5,0.048l-0.451,0.048l-0.451,0.096l-0.55,0.145l-1.05,0.288l-0.55,0.24l-0.401,0.193l-0.35,0.192l-0.401,0.241l-0.4,0.192
		l-0.351,0.24l-0.4,0.289l-0.351,0.24l-0.35,0.288l-0.301,0.288l-0.351,0.288l-0.35,0.385l-0.15,0.192l-0.701,0.721l-0.5,0.672
		l-0.25,0.384l-0.801,1.538l-0.25,0.433l-0.25,0.528l-0.351,1.01l-0.1,0.433l-0.149,0.432l-0.149,0.625l-0.101,0.577l-0.049,0.481
		l-0.05,0.432l-0.05,0.385v0.865l0.05,0.433l0.05,0.481l0.1,0.577l0.15,0.625l0.15,0.432l0.25,0.529l0.251,0.576l0.25,0.433
		l0.201,0.384l0.3,0.289l0.301,0.337l0.35,0.289l0.451,0.432l0.5,0.384l0.451,0.24l0.55,0.288l0.601,0.24l0.451,0.144l0.451,0.096
		l0.4,0.048L79.877,33.55z"/>
	<path fill="#FFFFFF" d="M105.188,30.522l0.351-0.241l0.351-0.144l0.4,0.048l0.4,0.096l0.451,0.048l0.55,0.049l1.801-0.192
		l0.401-0.096l0.45-0.193l0.8-0.384l0.351-0.192l0.4-0.289l0.351-0.24l0.351-0.288l0.301-0.289l0.65-0.673l0.3-0.288l0.25-0.337
		l0.301-0.384l0.251-0.338l0.2-0.384l0.5-0.77l0.25-0.337l0.601-1.153l0.15-0.433l-0.05-0.529l-0.4-0.432l-0.601-0.096l-0.451,0.24
		l-0.3,0.432l-0.15,0.288l-0.451,0.816l-0.4,0.77l-0.25,0.337l-0.251,0.384l-0.25,0.337l-0.601,0.673l-0.65,0.625l-0.351,0.289
		l-0.801,0.481l-0.351,0.192l-0.5,0.192l-0.45,0.096l-0.351,0.048l-0.55,0.048h-0.3l-0.4-0.048l-0.05-0.337l0.25-0.528l0.451-0.865
		l0.3-0.529l0.15-0.433l0.2-0.528l0.201-0.481l0.15-0.481l0.2-0.672l0.3-1.442l0.049-0.48l0.05-0.529l0.101-0.576v-1.683
		l-0.202-0.865l-0.049-0.384l-0.05-0.433l-0.149-0.433l-0.601-1.057l-0.3-0.384l-0.301-0.337l-0.25-0.288l-0.351-0.288l-0.55-0.288
		l-0.901-0.528l-0.399-0.192l-0.451-0.145l-0.451-0.096l-0.65-0.097l-0.801-0.096h-1.15l-0.451,0.048l-0.5,0.047l-0.451,0.097
		l-0.5,0.144l-0.3,0.096l-0.55,0.192l-0.3,0.096l-0.5,0.192l-0.4,0.192l-0.55,0.288l-0.55,0.337l-0.451,0.289l-0.401,0.288
		l-0.35,0.24l-0.702,0.577l-0.65,0.625l-0.3,0.338l-0.501,0.769l-0.3,0.337l-0.251,0.337l-0.3,0.384l-0.251,0.384l-0.3,0.576
		l-0.25,0.577l-0.15,0.432l-0.201,0.384l-0.201,0.432l-0.149,0.433l-0.149,0.384l-0.101,0.432l-0.1,0.481l-0.15,0.865l-0.1,0.433
		l-0.1,0.384l-0.101,0.433v1.345l-0.05,0.433l0.05,0.481l0.101,0.866l0.201,0.866l0.3,0.865l0.25,0.384l0.201,0.384l0.251,0.385
		l0.6,0.672l0.351,0.288l0.801,0.481l0.4,0.192l0.451,0.145l0.351,0.144l0.451,0.144l0.55,0.145l0.901,0.095h0.451l0.55-0.048h0.451
		l0.4-0.047l0.5-0.097l0.3-0.096l0.9-0.145l0.5-0.144l0.901-0.289l0.4-0.192l0.801-0.481l0.4-0.192l0.8-0.481l0.702-0.577
		L105.188,30.522z M95.08,25.042v-0.432l0.049-0.432l0.149-0.432l0.101-0.385l0.3-0.865l0.1-0.385l0.149-0.433l1.001-1.923
		l0.25-0.384l0.5-0.673l0.25-0.384l0.3-0.337l0.251-0.337l0.351-0.337l0.351-0.288l0.5-0.385l0.451-0.288l0.4-0.241l0.5-0.288
		l0.451-0.145l0.4-0.096h0.5l0.65,0.048l0.751,0.145l0.601,0.24l0.4,0.289l0.351,0.481l0.3,0.721l0.2,0.817l0.05,0.77l-0.1,1.634
		l-0.15,0.817l-0.1,0.625l-0.3,1.298l-0.601,1.73l-0.15,0.384l-0.201,0.288l-0.3,0.048l-0.351-0.096l-0.451-0.097l-0.451,0.048
		l-0.4,0.241l-0.351,0.288l-0.2,0.576l-0.1,0.577l0.1,0.432l0.25,0.384l0.2,0.337v0.288l-0.2,0.337l-0.4,0.288l-0.351,0.288
		l-0.4,0.24l-0.451,0.24l-0.4,0.192l-0.451,0.192l-0.5,0.096l-0.5,0.048h-0.65l-0.751-0.192l-0.55-0.239l-0.401-0.338l-0.35-0.48
		l-0.351-0.722l-0.201-0.77l-0.1-0.769l-0.049-0.625l-0.05-0.481l0.05-0.576L95.08,25.042z"/>
	<path fill="#FFFFFF" d="M113.685,17.976l-0.5,0.672l-0.3,0.384l-0.2,0.24l-0.301,0.481l-0.25,0.529l-0.3,0.528l-0.401,0.77
		l-0.15,0.432l-0.45,1.154l-0.15,0.433l-0.15,0.481l-0.049,0.288l-0.15,0.48l-0.1,0.433l-0.1,0.625l-0.049,0.577l-0.05,0.48v0.433
		l0.05,0.433v0.625l0.049,0.576l0.05,0.433l0.15,0.432l0.3,0.77l0.149,0.432l0.2,0.384l0.25,0.384l0.451,0.385l0.451,0.432
		l0.4,0.288l0.351,0.192l0.451,0.193l0.4,0.096l0.451,0.096l0.451,0.048l0.4,0.048l0.451-0.048l0.5-0.096l1.151-0.24l0.5-0.145
		l0.4-0.193l0.451-0.288l0.5-0.384l0.451-0.338l1.051-0.865l0.3-0.288l0.551-0.672l0.3-0.337l0.25-0.337l0.45-0.769l0.25-0.385
		l0.252-0.337l0.1,0.048v0.914l0.149,1.297l0.1,0.385l0.149,0.432l0.2,0.384l0.5,0.673l0.351,0.337l0.3,0.24l0.4,0.24l0.401,0.192
		l0.45,0.096l0.451,0.048l0.45-0.048h0.4l0.452-0.096l1.3-0.433l0.401-0.192l0.351-0.192l0.401-0.24l0.35-0.288l0.351-0.385
		l0.201-0.192l0.351-0.385l0.35-0.288l0.3-0.289l0.251-0.337l0.3-0.384l0.251-0.337l0.5-0.769l0.649-1.01l0.3-0.433l0.601-1.153
		l0.201-0.289l0.3-0.625l0.3-0.528l0.251-0.481l0.251-0.577v-0.625l-0.352-0.481l-0.6-0.097l-0.55,0.385l-0.25,0.528l-0.201,0.433
		l-0.201,0.337l-0.25,0.432l-0.501,1.058l-0.25,0.433l-0.2,0.384l-0.251,0.384l-0.701,0.961l-0.5,0.77l-0.501,0.673l-0.35,0.337
		l-0.901,0.769l-0.399,0.24l-0.452,0.145l-0.4,0.096l-0.451-0.048l-0.4-0.145l-0.3-0.289l-0.149-0.432l-0.149-0.577l-0.05-0.625
		l-0.05-0.481V27.39l0.05-0.433l0.1-0.432l0.05-0.433l0.101-0.576l0.1-0.626l0.1-0.432l0.049-0.433l0.3-1.297l0.1-0.626l0.1-0.576
		l0.101-0.432l0.148-0.528l0.101-0.288l0.201-0.625l0.149-0.625l0.15-0.432l0.1-0.433l0.1-0.384l0.1-0.432l0.15-0.433l0.149-0.384
		l0.149-0.432l0.101-0.432l0.1-0.385l0.1-0.433l0.15-0.384l0.149-0.433l0.15-0.384l0.15-0.433l0.149-0.384l0.1-0.432l0.55-1.586
		l0.149-0.481l0.251-0.577l0.351-1.01L132.1,8.36l0.15-0.433l0.25-0.576l0.202-0.577l0.601-1.538l0.2-0.529l0.201-0.576l0.251-0.577
		l0.149-0.433l0.151-0.384l0.2-0.384l0.201-0.433l0.1-0.432l0.1-0.385l-0.148-0.384l-0.353-0.24l-0.5-0.144l-0.3-0.096l-0.5-0.096
		l-0.45-0.048h-0.5l-0.549,0.192l-0.451,0.337l-0.202,0.384l-0.451,0.817l-0.149,0.384l-0.4,0.865l-0.1,0.289l-0.201,0.48
		l-0.15,0.385l-0.3,0.865l-0.25,0.577l-0.5,1.441l-0.15,0.385l-0.3,0.865l-0.1,0.384l-0.2,0.481l-0.101,0.288l-0.149,0.481
		l-0.352,0.816l-0.149,0.433l-0.1,0.384l-0.3,0.865l-0.1,0.433l-0.201,0.337l-0.3,0.145l-0.352-0.048l-0.549-0.096l-0.65-0.096
		h-1.15l-0.901,0.096l-0.5,0.048l-0.451,0.048l-0.901,0.192l-0.4,0.144l-0.901,0.288l-0.45,0.241l-0.751,0.384l-0.45,0.192
		l-0.4,0.193l-0.351,0.241l-0.401,0.288l-0.351,0.24l-1.05,0.866l-0.601,0.673l-0.351,0.337L113.685,17.976z M124.642,15.956
		l0.351,0.192l0.15,0.433l-0.1,0.528l-0.15,0.48l-0.149,0.626l-0.4,1.538l-0.202,0.625l-0.701,2.02l-0.149,0.384l-0.202,0.433
		l-0.25,0.528l-0.25,0.577l-0.201,0.432l-0.149,0.384l-0.201,0.433l-0.2,0.384l-0.352,0.433l-0.35,0.577l-0.3,0.433l-0.25,0.384
		l-0.25,0.337l-0.352,0.337l-0.3,0.337l-0.351,0.384l-0.6,0.577l-0.35,0.24l-0.451,0.24l-0.3,0.144l-0.501,0.192l-0.6,0.049
		l-0.6-0.096l-0.452-0.193l-0.35-0.288l-0.3-0.288l-0.25-0.337l-0.15-0.433l-0.1-0.625l-0.1-0.77l-0.1-0.626l0.05-0.481l0.049-0.577
		l0.1-0.625l0.149-0.432l0.3-1.154l0.202-0.433l0.149-0.384l0.149-0.432l0.15-0.385l0.25-0.384l0.601-1.058l0.251-0.432l0.251-0.337
		l0.601-0.721l0.3-0.337l0.3-0.289l0.7-0.577l0.351-0.336l0.351-0.288l0.35-0.24l0.4-0.241l0.451-0.191l0.451-0.145l0.5-0.192
		l0.301-0.096l0.5-0.096L122.788,16h0.451l0.951-0.048h0.452L124.642,15.956L124.642,15.956z"/>
	<path fill="#FFFFFF" d="M136.695,8.41l-0.1,0.48l-0.05,0.433l0.05,0.432l0.1,0.433l0.251,0.385l0.3,0.336l0.801,0.481l0.5,0.096
		l0.45,0.048l0.5-0.096l0.451-0.192l0.4-0.288l0.352-0.289l0.3-0.384l0.25-0.385l0.151-0.432V8.987l-0.05-0.432L141.2,8.123
		l-0.249-0.384l-0.351-0.337l-0.351-0.289l-0.4-0.24l-0.451-0.096h-0.501l-0.45,0.096l-0.5,0.145l-0.402,0.24l-0.399,0.336
		l-0.251,0.384L136.695,8.41z M144.553,22.253l-0.649-0.096l-0.452,0.241l-0.249,0.383l-0.602,1.154l-0.4,0.816l-0.2,0.433
		l-0.3,0.433l-0.25,0.384l-0.2,0.288l-0.3,0.337l-0.501,0.769l-0.299,0.384l-0.251,0.338l-0.301,0.337l-1.649,1.585l-0.402,0.289
		l-0.35,0.24l-0.451,0.192l-0.45,0.048l-0.55-0.144l-0.401-0.528l-0.101-0.721l0.101-0.817l0.15-0.771l0.15-0.625l0.1-0.433
		l0.3-0.865l0.352-1.202l0.1-0.432l0.351-0.816l0.1-0.433l0.101-0.385l0.101-0.432l0.35-1.009l0.202-0.625l0.1-0.433l0.5-1.442
		l0.149-0.576l0.15-0.481l0.1-0.432l0.1-0.384l0.301-0.866l0.15-0.625l0.15-0.577l0.101-0.432v-0.433l-0.251-0.337l-0.8-0.288
		l-0.901-0.096l-0.5-0.048l-0.401,0.048l-0.451,0.193l-0.3,0.24l-0.2,0.384l-0.146,0.434l-0.201,0.625l-0.149,0.577l-0.151,0.432
		l-0.299,1.297l-0.15,0.384l-0.2,0.481l-0.101,0.433l-0.101,0.337l-0.099,0.433l-0.301,0.866l-0.149,0.625l-0.15,0.576l-0.299,0.866
		l-0.101,0.384l-0.1,0.433l-0.151,0.432l-0.099,0.433l-0.05,0.384l-0.451,1.298l-0.15,0.384l-0.149,0.433l-0.1,0.432l-0.15,0.385
		l-0.2,0.866l-0.15,0.432l-0.1,0.433l-0.103,0.866v0.433l0.049,0.432l0.101,0.432l0.099,0.384l0.201,0.433l0.251,0.384l0.251,0.337
		l0.351,0.288l0.399,0.241l0.451,0.144l0.4,0.144l0.55,0.048h0.851l0.901-0.192l0.4-0.096l0.451-0.145l0.451-0.191l0.351-0.241
		l1.101-0.817l0.351-0.288l0.3-0.336L139.754,31l0.595-0.623l0.901-1.01l0.501-0.77l0.25-0.337l0.301-0.385l0.25-0.336l0.251-0.385
		l0.251-0.433l0.149-0.288l0.301-0.433l0.2-0.384l0.251-0.432l0.45-0.722l0.4-0.77l0.149-0.432v-0.529L144.553,22.253z"/>
	<path fill="#FFFFFF" d="M171.719,22.205l-0.649-0.096l-0.45,0.24l-0.251,0.384l-0.2,0.433l-0.201,0.385l-0.251,0.384l-0.201,0.433
		l-0.201,0.384l-0.501,0.77l-0.25,0.336l-0.25,0.384l-0.251,0.338l-0.751,1.153l-0.301,0.337l-0.25,0.385l-0.301,0.336l-0.4,0.337
		l-0.3,0.337l-0.301,0.24l-0.35,0.337l-0.802,0.481l-0.399,0.192l-0.451,0.096l-0.45-0.048l-0.352-0.192l-0.149-0.384l-0.1-0.385
		v-0.432l0.049-0.481l0.101-0.625l0.1-0.577l0.05-0.481l0.15-0.577l0.15-0.625l0.148-0.433l0.149-0.384l0.101-0.433l0.201-0.625
		l0.201-0.77l0.15-0.625l0.55-1.586l0.2-0.865l0.2-0.433l0.201-0.576l0.149-0.577l0.149-0.432l0.15-0.384l0.149-0.433l0.149-0.625
		l0.15-0.576l0.149-0.481l0.149-0.576l0.352-1.01l0.049-0.433l-0.201-0.336l-0.399-0.24l-0.501-0.145l-0.45-0.048l-0.501,0.048
		l-0.55,0.145l-0.45,0.144l-0.352,0.192l-0.352,0.288l-0.2,0.433l-0.1,0.432l-0.3,0.866l-0.1,0.384l-0.301,0.866l-0.1,0.384
		l-0.15,0.432l-0.1,0.481l-0.101,0.433l-0.15,0.432l-0.149,0.384l-0.149,0.433l-0.1,0.433l-0.15,0.433l-0.101,0.432l-0.201,0.433
		l-0.201,0.384l-0.299,0.384l-0.301,0.481l-0.35,0.529l-0.252,0.384l-0.6,0.673l-0.297,0.287l-0.701,0.577l-0.4,0.24l-0.55,0.336
		l-0.451,0.289l-0.45,0.24l-0.551,0.24l-1.201,0.384l-0.451,0.096l-0.5,0.097l-1.201,0.096l-0.5,0.048h-0.45l-0.45,0.047h-0.9
		l-0.901-0.096l-0.451-0.096l-0.351-0.145l-0.201-0.288l0.05-0.385l0.149-0.482l0.101-0.432l0.1-0.481l0.101-0.432l0.451-1.297
		l0.1-0.481l0.1-0.433l0.149-0.433l0.251-0.336l0.352-0.241l0.399-0.192l0.352-0.192l0.449-0.288l0.251-0.144l0.451-0.288
		l0.352-0.192l0.399-0.24l0.351-0.24l0.35-0.289l0.402-0.241l0.35-0.24l0.351-0.337l1.202-1.057l0.4-0.337l0.649-0.625l0.3-0.338
		l0.251-0.24l0.252-0.337l0.351-0.384l0.249-0.338l0.252-0.384l0.5-0.672l0.3-0.385l0.251-0.337l0.2-0.383l0.251-0.385l0.2-0.337
		l0.201-0.384l0.15-0.433l0.301-0.625l0.3-0.672l0.251-0.625l0.199-0.432l0.101-0.337l0.149-0.433l0.202-0.625l0.101-0.625
		l0.049-0.433l0.1-0.432l0.1-0.866V4.034l-0.049-0.432l-0.1-0.625l-0.251-0.721l-0.301-0.577l-0.601-0.672l-0.351-0.288l-0.55-0.288
		l-0.55-0.193l-0.55-0.144l-0.601-0.048l-0.602,0.048l-0.45,0.096l-0.451,0.144l-0.4,0.097l-0.8,0.384l-0.4,0.24l-0.701,0.481
		l-0.4,0.289l-0.4,0.384l-0.4,0.433l-0.351,0.384l-0.246,0.339l-0.25,0.384l-0.249,0.432l-0.151,0.241l-0.3,0.432l-0.801,1.539
		l-0.2,0.432l-0.149,0.384l-0.801,1.538l-0.301,0.866l-0.2,0.433l-0.201,0.577l-0.251,0.576l-0.2,0.433l-0.15,0.384l-0.148,0.433
		l-0.149,0.384l-0.301,0.866l-0.1,0.384l-0.3,0.866l-0.15,0.384l-0.201,0.433l-0.101,0.433l-0.148,0.384l-0.101,0.432l-0.149,0.433
		l-0.15,0.384l-0.2,0.866l-0.15,0.384l-0.1,0.433l-0.301,0.865l-0.051,0.384l-0.1,0.432l-0.249,0.865l-0.101,0.385l-0.451,1.298
		l-0.1,0.432l-0.1,0.577l-0.15,0.625l-0.15,0.433l-0.101,0.384l-0.148,0.433l-0.2,0.865l-0.101,0.625l-0.148,0.77l-0.151,0.625
		l-0.1,0.432l-0.15,0.432l-0.1,0.433l-0.101,0.625l-0.049,0.576l-0.1,0.481l-0.202,1.202l-0.101,0.48l-0.1,0.626l-0.15,0.769
		l-0.1,0.625l-0.1,0.481l-0.101,0.576l-0.101,0.625l-0.048,0.432v0.432l-0.049,0.481l-0.05,0.576v3.173l0.05,0.481l0.049,0.432
		l0.1,0.433l0.15,0.385l0.202,0.384l0.25,0.384l0.301,0.336l0.299,0.289l0.301,0.337l0.399,0.24l0.401,0.192l1.201,0.288
		l0.501,0.048h0.55l0.451-0.096l0.351-0.097l0.45-0.096l0.4-0.191l0.45-0.241l0.252-0.192l0.45-0.288l0.351-0.241l0.351-0.288
		l0.3-0.337l0.301-0.289l0.251-0.384l0.251-0.337l0.2-0.384l0.2-0.433l0.201-0.384l0.201-0.432l0.249-0.577l0.451-1.297l0.15-0.481
		l0.099-0.625l0.101-0.577l0.1-0.481l0.051-0.577l0.05-0.625v-1.105l-0.05-0.577l-0.051-0.481l-0.05-0.625l-0.148-0.769
		l-0.148-0.626l-0.202-0.432l-0.201-0.577l-0.3-0.625l-0.202-0.385l-0.4-0.672l-0.25-0.385l-0.3-0.336l-0.3-0.385l-0.051-0.241
		l0.301-0.048l0.951,0.048h0.9l0.451-0.048h0.501l0.45-0.048l0.601-0.144l1.051-0.288l1.049-0.338l1.602-0.769l0.401-0.288
		l0.351-0.289l0.3-0.192l0.05,0.048l-0.05,0.288l-0.1,0.433l-0.101,0.481l-0.1,0.626l-0.101,0.576l-0.1,0.481l-0.049,0.432
		l0.148,1.298l0.101,0.384l0.2,0.432l0.202,0.384l0.3,0.288l0.351,0.288l0.45,0.192l0.602,0.144l0.601,0.096l0.5,0.096h0.45
		l0.452-0.048l0.45-0.145l0.4-0.144l0.499-0.24l0.401-0.24l0.3-0.144l0.399-0.24l0.353-0.289l0.399-0.24l0.3-0.24l0.353-0.288
		l0.399-0.433l0.301-0.337l0.249-0.289l0.251-0.337l0.601-0.672l0.251-0.384l0.351-0.384l0.201-0.241l0.3-0.433l0.25-0.384
		l0.201-0.384l0.201-0.432l0.251-0.337l0.25-0.433l0.149-0.288l0.301-0.433l0.25-0.337l0.251-0.384l0.2-0.433l0.202-0.384
		l0.148-0.433v-0.529L171.719,22.205z M154.655,5.765l0.25-0.384l0.2-0.384l0.252-0.384l0.399-0.481l0.401-0.433l0.351-0.337
		l0.401-0.192l0.449-0.048l0.4,0.096l0.25,0.337l0.15,0.577l0.101,0.576v0.482l-0.05,0.433l-0.302,1.297l-0.147,0.384l-0.302,0.866
		l-0.1,0.384l-0.2,0.432l-0.148,0.433l-0.802,1.538l-0.201,0.433l-0.251,0.337l-0.25,0.384l-0.2,0.385l-0.251,0.384l-0.299,0.337
		l-0.252,0.385l-0.251,0.337l-0.249,0.384l-0.901,1.01l-0.4,0.337l-0.202,0.24l-0.4,0.433l-0.201,0.192l-0.299,0.336l-0.301,0.289
		l-0.5,0.432l-0.352,0.337l-0.35,0.192l-0.201-0.144l0.051-0.385l0.2-0.432l0.149-0.385l0.099-0.432l0.15-0.384l0.15-0.433
		l0.2-0.625l0.249-0.721l0.202-0.626l0.351-1.009l0.2-0.529l0.201-0.432l0.201-0.384l0.149-0.433l0.2-0.528l0.353-0.866l0.2-0.529
		l0.149-0.432l0.2-0.384l0.201-0.338l0.201-0.384l0.149-0.433l0.301-0.528L154.655,5.765z M165.164,11.342l0.499,0.097h0.452
		l0.9-0.289l0.451-0.241l0.349-0.288l0.302-0.384l0.251-0.433l0.099-0.432l0.05-0.481l-0.05-0.432l-0.099-0.432l-0.201-0.433
		l-0.352-0.336l-0.35-0.24l-0.452-0.193l-0.45-0.096h-0.5l-0.451,0.096l-0.5,0.193l-0.401,0.24l-0.399,0.288l-0.301,0.384
		l-0.2,0.433l-0.1,0.432l-0.101,0.482l0.05,0.432l0.149,0.432l0.601,0.672l0.351,0.289L165.164,11.342z M148.7,40.184l-0.201,0.769
		l-0.199,0.625l-0.201,0.433l-0.251,0.576l-0.352,0.528l-0.299,0.384l-0.451,0.433l-0.5,0.24l-0.452-0.048l-0.399-0.433
		l-0.252-0.528l-0.148-0.433l-0.05-0.384l-0.05-0.433v-0.914l0.1-0.865v-0.433l0.15-1.298l0.101-0.432l0.049-0.384l0.101-0.432
		v-0.481l0.201-1.058l0.05-0.528l0.148-0.576l0.05-0.385l0.101-0.433l0.049-0.432l0.101-0.432l0.101-0.481l0.201-0.865l0.201-0.577
		l0.1-0.625l0.149-0.338l0.352,0.049l0.399,0.289l0.302,0.336l0.248,0.385l0.201,0.384l0.251,0.336l0.2,0.433l0.202,0.576l0.2,0.77
		l0.101,0.817l0.1,0.625v1.347l-0.05,0.625l-0.05,0.77l-0.101,0.625l-0.1,0.481l-0.15,0.626L148.7,40.184z"/>
	<path fill="#FFFFFF" d="M187.111,21.196l0.252-0.433l0.149-0.24l0.199-0.481l0.202-0.576l0.149-0.577l0.049-0.48l0.051-0.626
		v-0.576l-0.051-0.433l-0.1-0.432l-0.149-0.433l-0.25-0.576l-0.301-0.481l-0.302-0.337l-0.7-0.576l-0.299-0.192l-0.402-0.192
		l-0.449-0.192l-0.452-0.144l-0.649-0.144l-0.802-0.145l-0.649-0.096h-1.1l-0.651,0.096l-0.9,0.193l-1.051,0.337l-0.649,0.288
		l-0.451,0.193l-0.501,0.24l-0.5,0.288l-0.451,0.337l-0.5,0.337l-0.45,0.337l-0.4,0.337l-0.752,0.722l-0.751,0.77l-0.3,0.337
		l-0.251,0.337l-0.201,0.432l-0.351,0.482l-0.3,0.528l-0.251,0.433l-0.249,0.576l-0.202,0.529l-0.149,0.432l-0.101,0.432
		l-0.148,0.433l-0.101,0.432l-0.149,0.384l-0.302,1.298v0.432l-0.05,0.433v0.914l0.15,1.297l0.101,0.433l0.101,0.384l0.1,0.432
		l0.15,0.433l0.148,0.384l0.201,0.432l0.201,0.338l0.251,0.383l0.3,0.337l0.352,0.385l0.2,0.239L173,31.966l0.35,0.289l0.401,0.192
		l0.801,0.432l0.399,0.193l0.451,0.192l0.451,0.144l0.4,0.096l1.801,0.191h0.452l0.549-0.048l0.65-0.048l1.051-0.096l0.601-0.144
		l0.65-0.096l0.45-0.144l0.4-0.145l1.25-0.528l0.802-0.481l0.452-0.384l0.499-0.384l0.701-0.576l0.302-0.336l0.35-0.385l0.149-0.192
		l0.352-0.384l0.3-0.338l0.301-0.289l0.3-0.336l0.501-0.673l0.3-0.432l0.149-0.288l0.5-0.77l0.301-0.481l0.299-0.528l0.252-0.529
		l0.301-0.527l0.25-0.529l0.2-0.432l0.05-0.433l-0.251-0.432l-0.45-0.288h-0.451l-0.351,0.24l-0.251,0.384l-0.2,0.385l-0.201,0.432
		l-0.201,0.384l-0.251,0.338l-0.2,0.384l-0.251,0.384l-0.2,0.384l-0.25,0.384l-0.501,0.673l-0.301,0.384l-0.251,0.337l-0.6,0.673
		l-0.701,0.625l-0.351,0.288l-0.351,0.241l-0.701,0.528l-0.801,0.385l-0.852,0.337l-0.4,0.144l-0.451,0.144l-0.45,0.096l-1.302,0.24
		l-0.45,0.048h-0.5l-0.452-0.048l-0.45-0.097l-0.35-0.048l-0.451-0.144l-0.5-0.144l-0.801-0.481l-0.301-0.288l-0.3-0.336
		l-0.501-0.77l-0.3-0.866l-0.1-0.384l-0.05-0.481v-0.816l0.05-0.481v-0.433l0.1-0.337l0.251-0.191h0.35l1.352,0.288l0.451,0.048
		l0.9,0.048l0.901,0.096h0.451l0.45-0.047l0.601-0.097l0.55-0.048l0.501-0.096l0.45-0.048l0.451-0.144l0.5-0.144l0.45-0.193
		l0.301-0.144l0.5-0.288l0.302-0.097l0.449-0.239l0.352-0.241l0.701-0.577l0.601-0.672l0.251-0.336L187.111,21.196z M181.458,15.668
		l0.499-0.096l0.45,0.047l0.452,0.096l0.451,0.192l0.4,0.288l0.3,0.337l0.2,0.432l0.05,0.481l-0.05,0.432l-0.101,0.482l-0.3,0.866
		l-0.251,0.432l-0.201,0.385l-0.25,0.337l-0.301,0.384l-0.351,0.288l-0.351,0.337l-0.352,0.288l-0.349,0.24l-0.502,0.241
		l-0.299,0.096l-0.501,0.193l-0.451,0.096l-0.501,0.095h-1.4l-0.501-0.048l-1.001-0.047l-0.65-0.144l-0.249-0.24l0.049-0.338
		l0.15-0.383l0.2-0.433l0.2-0.577l0.3-0.528l0.251-0.433l0.352-0.481l0.35-0.529l0.351-0.384l0.4-0.433l0.451-0.432l0.701-0.577
		l0.399-0.24l0.602-0.289l0.702-0.289L181.458,15.668z"/>
	<path fill="#FFFFFF" d="M190.715,17.976l-0.5,0.672l-0.301,0.384l-0.2,0.24l-0.301,0.481l-0.25,0.529l-0.301,0.528l-0.4,0.77
		l-0.149,0.432l-0.451,1.154l-0.149,0.433l-0.149,0.481l-0.05,0.288l-0.149,0.48l-0.101,0.433l-0.101,0.625l-0.049,0.577l-0.05,0.48
		v0.433l0.05,0.433v0.625l0.049,0.576l0.05,0.433l0.15,0.432l0.299,0.77l0.15,0.432l0.201,0.384l0.251,0.384l0.451,0.385l0.45,0.432
		l0.4,0.288l0.352,0.192l0.45,0.193l0.4,0.096l0.45,0.096l0.45,0.048l0.401,0.048l0.451-0.048l0.499-0.096l1.151-0.24l0.5-0.145
		l0.4-0.193l0.451-0.288l0.501-0.384l0.45-0.338l1.051-0.865l0.3-0.288l0.55-0.672l0.301-0.337l0.251-0.337l0.45-0.769l0.251-0.385
		l0.25-0.337l0.1,0.048v0.914l0.15,1.297l0.1,0.385l0.151,0.432l0.199,0.384l0.501,0.673l0.35,0.337l0.301,0.24l0.4,0.24l0.4,0.192
		l0.45,0.096l0.452,0.048l0.449-0.048h0.4l0.451-0.096l1.301-0.433l0.401-0.192l0.349-0.192l0.401-0.24l0.351-0.288l0.352-0.385
		l0.199-0.192l0.351-0.385l0.352-0.288l0.299-0.289l0.252-0.337l0.3-0.384l0.25-0.337l0.501-0.769l0.65-1.01l0.3-0.433l0.6-1.153
		l0.201-0.289l0.301-0.625l0.3-0.528l0.251-0.481l0.25-0.577v-0.625l-0.35-0.481l-0.601-0.097l-0.551,0.385l-0.25,0.528
		l-0.202,0.433l-0.201,0.337l-0.249,0.432l-0.501,1.058l-0.249,0.433l-0.2,0.384l-0.252,0.384l-0.701,0.961l-0.5,0.77l-0.5,0.673
		l-0.351,0.337l-0.901,0.769l-0.4,0.24l-0.451,0.145l-0.4,0.096l-0.45-0.048l-0.401-0.145l-0.3-0.289l-0.149-0.432l-0.148-0.577
		l-0.051-0.625l-0.051-0.481V27.39l0.051-0.433l0.101-0.432l0.05-0.433l0.101-0.576l0.099-0.626l0.101-0.432l0.049-0.433
		l0.302-1.297l0.1-0.626l0.101-0.576l0.1-0.432l0.148-0.528l0.101-0.288l0.202-0.625l0.149-0.625l0.149-0.432l0.1-0.433l0.1-0.384
		l0.101-0.432l0.15-0.433l0.149-0.384l0.15-0.432l0.099-0.432l0.101-0.385l0.1-0.433l0.15-0.384l0.149-0.433l0.15-0.384l0.149-0.433
		l0.148-0.384l0.101-0.432l0.55-1.586l0.151-0.481l0.251-0.577l0.349-1.01l0.15-0.384l0.15-0.433l0.25-0.576l0.199-0.577
		l0.603-1.538l0.199-0.529l0.201-0.576l0.251-0.577l0.148-0.433l0.149-0.384l0.202-0.384l0.2-0.433l0.101-0.432l0.1-0.385
		l-0.149-0.384l-0.351-0.24l-0.5-0.144l-0.302-0.096l-0.499-0.096l-0.451-0.048h-0.501l-0.549,0.192l-0.452,0.337l-0.199,0.384
		l-0.452,0.817l-0.149,0.384l-0.4,0.865l-0.101,0.289l-0.199,0.48l-0.149,0.385l-0.301,0.865l-0.25,0.577l-0.501,1.441l-0.149,0.385
		l-0.3,0.865l-0.101,0.384l-0.201,0.481l-0.101,0.288l-0.148,0.481l-0.352,0.816l-0.149,0.433l-0.101,0.384l-0.299,0.865
		l-0.101,0.433l-0.201,0.337l-0.3,0.145l-0.351-0.048l-0.55-0.096l-0.652-0.096h-1.148l-0.901,0.096l-0.5,0.048l-0.452,0.048
		l-0.9,0.192l-0.4,0.144l-0.901,0.288l-0.449,0.241l-0.751,0.384l-0.451,0.192l-0.4,0.193l-0.352,0.241l-0.4,0.288l-0.35,0.24
		l-1.051,0.866l-0.601,0.673l-0.351,0.337L190.715,17.976z M201.673,15.956l0.352,0.192l0.149,0.433l-0.1,0.528l-0.15,0.48
		l-0.149,0.626l-0.4,1.538l-0.2,0.625l-0.701,2.02l-0.149,0.384l-0.202,0.433l-0.251,0.528l-0.25,0.577l-0.2,0.432l-0.149,0.384
		l-0.2,0.433l-0.201,0.384l-0.352,0.433l-0.35,0.577l-0.301,0.433l-0.251,0.384l-0.249,0.337l-0.353,0.337l-0.299,0.337
		l-0.352,0.384l-0.601,0.577l-0.35,0.24l-0.451,0.24l-0.301,0.144l-0.5,0.192l-0.601,0.049l-0.601-0.096l-0.451-0.193l-0.35-0.288
		l-0.301-0.288l-0.251-0.337l-0.149-0.433l-0.101-0.625l-0.1-0.77l-0.101-0.626l0.051-0.481l0.049-0.577l0.1-0.625l0.15-0.432
		l0.3-1.154l0.2-0.433l0.15-0.384l0.15-0.432l0.148-0.385l0.252-0.384l0.6-1.058l0.251-0.432l0.25-0.337l0.601-0.721l0.299-0.337
		l0.302-0.289l0.702-0.577l0.351-0.336l0.35-0.288l0.352-0.24l0.399-0.241l0.451-0.191l0.451-0.145l0.499-0.192l0.302-0.096
		l0.5-0.096L199.818,16h0.45l0.952-0.048h0.451L201.673,15.956L201.673,15.956z"/>
	<path fill="#FFFFFF" d="M24.382,0.094l-0.4,0.192l-0.3,0.337l-0.4,0.77l-0.45,1.297l-0.15,0.384l-0.149,0.433L22.331,3.89
		l-0.149,0.433l-0.15,0.385L21.829,5.14l-0.148,0.384l-0.201,0.432L21.33,6.341l-0.1,0.432l-0.15,0.481l-0.1,0.289l-0.15,0.482
		L20.68,8.458l-0.3,0.816l-0.201,0.432l-0.1,0.385l-0.3,0.865l-0.149,0.385l-0.3,0.865l-0.101,0.385l-0.149,0.432l-0.251,0.865
		l-0.149,0.432l-0.201,0.865l-0.149,0.577l-0.202,0.625l-0.201,0.865l-0.149,0.432l-0.1,0.433l-0.15,0.433l-0.1,0.432l-0.05,0.433
		l-0.201,0.866l-0.15,0.481l-0.1,0.625l-0.3,1.635l-0.101,0.626l-0.048,0.481l-0.05,0.432v0.432l-0.1,0.866l-0.05,0.481l-0.05,0.432
		v0.433l-0.05,0.433l0.05,0.481l0.05,0.433l0.1,0.384l0.201,0.866l0.15,0.432l0.15,0.385l0.25,0.433l0.25,0.337l0.3,0.384
		l0.351,0.289l0.351,0.337l0.45,0.24l0.401,0.24l1.351,0.433l0.401,0.096l0.45,0.048l1.051,0.096h0.451l1.851-0.192l0.451-0.097
		l0.451-0.144l0.401-0.096l0.451-0.144l0.451-0.193l0.401-0.192l0.35-0.192l0.751-0.433l0.451-0.288l0.4-0.24l0.701-0.578
		l0.301-0.288l0.351-0.24l0.4-0.096l0.9,0.096l0.55,0.048h0.801l0.451-0.048l0.5-0.048l0.451-0.048l0.4-0.096l0.451-0.145
		l0.851-0.336l0.4-0.192l0.351-0.24l0.351-0.338l0.4-0.336l0.351-0.289l0.3-0.24l0.3-0.288l0.3-0.337l0.301-0.385l0.25-0.384
		l0.301-0.433l0.201-0.24l0.3-0.384l0.25-0.385l0.201-0.384l0.251-0.384l0.4-0.769l0.149-0.433l-0.1-0.529l-0.4-0.432l-0.601-0.096
		l-0.4,0.24l-0.25,0.384l-0.15,0.384l-0.25,0.433l-0.201,0.384l-0.25,0.338l-0.5,0.769l-0.3,0.385l-0.25,0.384l-0.25,0.337
		l-0.701,0.672l-0.351,0.24L36.15,27.59l-0.4,0.239l-0.451,0.145l-0.401,0.145l-0.45,0.144l-0.451,0.048l-0.501,0.048l-0.45,0.048
		l-0.351-0.096l-0.1-0.192l0.15-0.337l0.3-0.384l0.4-0.865l0.201-0.384l0.15-0.433l0.4-0.866l0.1-0.432l0.301-0.866l0.201-0.866
		l0.049-0.481l0.201-0.865l0.05-0.481l0.05-0.432v-0.431l0.05-0.433V19.13l-0.049-0.433l-0.05-0.481l-0.1-0.433l-0.05-0.384
		l-0.15-0.432l-0.1-0.433l-0.201-0.384l-0.15-0.433l-0.25-0.384l-0.3-0.337l-0.251-0.337l-0.601-0.672l-0.35-0.24l-0.401-0.24
		l-0.451-0.192l-0.4-0.192l-0.9-0.193l-0.5-0.048h-0.65l-0.851,0.048l-0.801,0.144l-0.65,0.097l-0.5,0.144l-0.601,0.192l-0.55,0.24
		l-0.451,0.192l-0.55,0.337l-0.5,0.289l-0.4,0.336l-0.451,0.192l-0.25,0.048l0.05-0.289l0.149-0.433l0.05-0.384l0.15-0.432
		l0.1-0.433l0.149-0.384l0.301-0.866l0.1-0.384l0.149-0.432l0.1-0.433l0.15-0.432l0.201-0.433l0.201-0.576l0.25-0.577l0.301-0.865
		l0.149-0.384l0.1-0.432l0.149-0.433l0.101-0.384l0.3-0.865l0.201-0.385l0.201-0.433l0.201-0.384l0.15-0.385l0.149-0.432l0.15-0.384
		l0.201-0.481l0.101-0.288l0.201-0.482l0.1-0.384l-0.1-0.384L27.141,0.58l-0.4-0.192L26.283,0.24l-0.501-0.144L24.881,0
		L24.382,0.094z M27.485,15.524l0.9,0.096l0.4,0.048l0.451,0.144l0.801,0.385l0.351,0.288l0.25,0.384l0.201,0.384l0.201,0.866
		l0.05,0.433v1.346l-0.15,1.298l-0.1,0.433l-0.05,0.432l-0.1,0.433l-0.451,1.299l-0.149,0.384l-0.101,0.433l-0.15,0.433
		l-0.201,0.384l-0.201,0.289l-0.3,0.096l-0.351-0.096l-0.4-0.048l-0.451,0.096l-0.5,0.337l-0.4,0.432l-0.1,0.481l0.1,0.577
		l0.25,0.528l0.201,0.384v0.337l-0.201,0.288l-0.351,0.289l-0.4,0.24l-0.351,0.24l-0.4,0.289l-0.4,0.192l-0.4,0.145l-0.9,0.192
		l-0.901,0.096l-0.9-0.096l-0.4-0.145l-0.4-0.24l-0.701-0.577l-0.201-0.384l-0.201-0.433l-0.15-0.576l-0.101-0.625v-0.914
		l-0.049-0.432v-0.433l0.049-0.432v-0.432l0.05-0.481l0.101-0.625l0.149-0.576l0.1-0.481l0.101-0.433l0.149-0.432l0.15-0.576
		l0.15-0.625l0.149-0.432l0.101-0.433l0.15-0.384l0.149-0.432l0.15-0.385l0.25-0.337l0.351-0.384l0.251-0.193l0.4-0.336l0.351-0.241
		l0.751-0.481l0.351-0.24l0.4-0.192l0.451-0.192l0.4-0.193l0.5-0.144l0.301-0.096l0.5-0.144L27.485,15.524z"/>
	<path fill="#FFFFFF" d="M53.724,21.196l0.25-0.433l0.15-0.24l0.201-0.481l0.201-0.576l0.149-0.577l0.05-0.48l0.05-0.626v-0.576
		l-0.05-0.433l-0.1-0.432l-0.15-0.433l-0.25-0.576l-0.301-0.481l-0.3-0.337l-0.701-0.576l-0.301-0.192l-0.4-0.192l-0.451-0.192
		l-0.451-0.144l-0.65-0.144l-0.801-0.145l-0.65-0.096h-1.103l-0.65,0.096l-0.901,0.193l-1.05,0.337l-0.65,0.288l-0.451,0.193
		l-0.5,0.24l-0.5,0.288l-0.451,0.337l-0.5,0.337l-0.451,0.337l-0.401,0.337l-0.75,0.722l-0.751,0.77l-0.3,0.337l-0.251,0.337
		l-0.2,0.432l-0.348,0.482l-0.301,0.528l-0.25,0.433l-0.25,0.577l-0.202,0.528l-0.149,0.433l-0.1,0.432l-0.15,0.433l-0.1,0.432
		l-0.148,0.381l-0.3,1.298v0.432l-0.05,0.433v0.913l0.149,1.298l0.1,0.432l0.1,0.384l0.1,0.432l0.15,0.433l0.15,0.384l0.201,0.432
		l0.201,0.337l0.251,0.385l0.3,0.337l0.351,0.385l0.201,0.24l0.351,0.337l0.351,0.289l0.4,0.192l0.801,0.433l0.401,0.192l0.45,0.192
		l0.451,0.145l0.4,0.096l1.801,0.192h0.451l0.55-0.048l0.649-0.048l1.051-0.097l0.601-0.144l0.65-0.097l0.451-0.144l0.401-0.144
		l1.251-0.528l0.801-0.481l0.451-0.384l0.5-0.384l0.701-0.577l0.3-0.337l0.351-0.384l0.15-0.192l0.351-0.384l0.3-0.337l0.3-0.289
		l0.301-0.337l0.5-0.673l0.3-0.432l0.15-0.289l0.501-0.769l0.3-0.481l0.3-0.528l0.25-0.529l0.301-0.528l0.25-0.529l0.201-0.432
		l0.05-0.432l-0.25-0.432l-0.451-0.288h-0.451l-0.351,0.24l-0.25,0.384l-0.201,0.385l-0.201,0.433l-0.201,0.384l-0.251,0.337
		l-0.201,0.384l-0.25,0.385l-0.202,0.384l-0.251,0.384l-0.5,0.673l-0.3,0.384l-0.25,0.337l-0.601,0.673l-0.701,0.625l-0.35,0.288
		l-0.351,0.24l-0.702,0.528l-0.8,0.384l-0.851,0.337l-0.4,0.144l-0.45,0.144l-0.451,0.096l-1.301,0.24l-0.451,0.048h-0.5
		l-0.451-0.048l-0.451-0.097l-0.351-0.047l-0.451-0.144l-0.5-0.144l-0.801-0.482l-0.3-0.288l-0.3-0.337l-0.498-0.767l-0.3-0.866
		l-0.1-0.384l-0.05-0.481v-0.816l0.05-0.481v-0.433l0.1-0.337l0.25-0.191h0.351l1.351,0.288l0.451,0.048l0.901,0.048l0.9,0.096
		h0.451l0.451-0.047l0.6-0.097l0.55-0.048l0.5-0.096l0.451-0.048l0.451-0.144l0.5-0.144l0.451-0.193l0.301-0.144l0.5-0.288
		l0.3-0.097l0.451-0.239l0.351-0.241l0.702-0.577l0.601-0.672l0.25-0.336L53.724,21.196z M48.07,15.668l0.5-0.096l0.451,0.047
		l0.451,0.096l0.451,0.192l0.4,0.288l0.3,0.337l0.201,0.432l0.05,0.481l-0.05,0.432l-0.1,0.482l-0.3,0.866l-0.25,0.432l-0.201,0.385
		l-0.25,0.337l-0.3,0.384l-0.351,0.288l-0.351,0.337l-0.351,0.288l-0.351,0.24l-0.5,0.241l-0.3,0.096l-0.5,0.193l-0.451,0.096
		l-0.5,0.095h-1.401l-0.5-0.048l-1.001-0.047l-0.65-0.144l-0.25-0.24l0.05-0.338l0.149-0.383l0.201-0.433l0.201-0.577l0.3-0.528
		l0.251-0.433l0.351-0.481l0.35-0.529l0.351-0.384l0.4-0.433l0.451-0.432l0.702-0.577l0.4-0.24l0.601-0.289l0.701-0.289
		L48.07,15.668z"/>
	<path fill="#FFFFFF" d="M60.847,21.74h9.63v2.726h-9.63V21.74z"/>
	<path fill="#FFFFFF" d="M11.827,9.503l1.512,1.743L3.66,20.01l9.882,8.816l-1.714,1.743L1.188,21.036v-2L11.827,9.503z"/>
</g>
<g id="Layer_2">
	<path fill="#890000" d="M215.506,58.659l-1.526,1.732l9.767,8.706l-9.971,8.757l1.73,1.73l10.732-9.47v-1.986L215.506,58.659z"/>
	<path fill="#890000" d="M79.877,82.494l0.901,0.096l1.351-0.144l0.901-0.144l0.601-0.145l0.601-0.097l0.55-0.145l0.601-0.191
		l0.6-0.24l0.4-0.241l0.4-0.192l0.4-0.239l0.451-0.337l0.351-0.24l0.3-0.24l0.701-0.481l0.351-0.288l0.301-0.288l0.25-0.337
		l0.9-1.01l0.351-0.337l0.25-0.338l0.3-0.384l0.751-1.059l0.4-0.576l0.4-0.527l0.351-0.527l0.25-0.482l0.201-0.433l0.2-0.384
		l0.15-0.385v-0.528l-0.4-0.433l-0.65-0.097l-0.5,0.339l-0.351,0.625l-0.201,0.433l-0.3,0.48l-0.351,0.529l-0.149,0.287
		l-0.301,0.433l-0.5,0.672l-0.601,0.674l-0.301,0.288l-0.6,0.672l-0.701,0.576l-0.451,0.385l-0.501,0.384L86.335,78.6l-0.55,0.24
		l-0.55,0.288l-0.451,0.191l-0.55,0.145l-0.451,0.097l-1.151,0.097h-1.101l-0.65-0.097l-0.451-0.097l-0.601-0.239l-0.55-0.241
		l-0.351-0.288l-0.3-0.288l-0.301-0.384l-0.5-0.961l-0.15-0.48l-0.149-0.673l-0.05-0.77v-0.625l0.05-0.482l0.049-0.625l0.1-0.576
		l0.1-0.48l0.15-0.577l0.15-0.626l0.15-0.432l0.149-0.384l0.15-0.433l0.201-0.385l0.201-0.338l0.25-0.384l0.201-0.432l0.301-0.528
		l0.45-0.529l0.351-0.432l0.351-0.338l0.4-0.432l0.401-0.288l0.35-0.24l0.401-0.289l0.35-0.239l0.451-0.192l0.601-0.193l0.6-0.094
		l0.451-0.049l0.451,0.049l0.451,0.143l0.5,0.337l0.35,0.481l0.101,0.433v0.385l-0.101,0.432l-0.099,0.384l-0.201,0.433
		l-0.301,0.433l-0.351,0.529l-0.25,0.432v0.481l0.5,0.337l0.801,0.192h0.801l0.65-0.097l0.4-0.191l0.351-0.288l0.3-0.338
		l0.351-0.433l0.351-0.48l0.25-0.385l0.201-0.385l0.15-0.432l0.15-0.624l0.049-0.578l-0.049-0.481l-0.15-0.576l-0.201-0.528
		l-0.201-0.433l-0.3-0.288l-0.301-0.337l-0.35-0.288l-0.351-0.24l-0.351-0.191l-0.45-0.145l-0.65-0.191l-0.751-0.194l-0.65-0.096
		l-0.451-0.049h-0.851l-0.5,0.049l-0.451,0.048l-0.451,0.097l-0.55,0.144l-1.05,0.289l-0.55,0.239l-0.401,0.192l-0.35,0.193
		l-0.401,0.239l-0.4,0.193l-0.351,0.239l-0.4,0.289L78.43,64.18l-0.35,0.289l-0.301,0.288l-0.351,0.288l-0.35,0.384l-0.15,0.192
		l-0.701,0.722l-0.5,0.672l-0.25,0.385l-0.801,1.538l-0.25,0.432l-0.25,0.529l-0.351,1.01l-0.1,0.432l-0.149,0.434l-0.149,0.624
		l-0.101,0.576l-0.049,0.481l-0.05,0.433l-0.05,0.385v0.865l0.05,0.433l0.05,0.481l0.1,0.577l0.15,0.623l0.15,0.434l0.25,0.529
		l0.251,0.576l0.25,0.432l0.201,0.384l0.3,0.288l0.301,0.338l0.35,0.288l0.451,0.432l0.5,0.385l0.451,0.241l0.55,0.287l0.601,0.24
		l0.451,0.145l0.451,0.096l0.4,0.048L79.877,82.494z"/>
	<path fill="#890000" d="M105.188,79.464l0.351-0.239l0.351-0.145l0.4,0.048l0.4,0.097l0.451,0.048l0.55,0.047l1.801-0.191
		l0.401-0.097l0.45-0.191l0.8-0.384l0.351-0.192l0.4-0.289l0.351-0.239l0.351-0.289l0.301-0.288l0.65-0.672l0.3-0.289l0.25-0.336
		l0.301-0.386l0.251-0.336l0.2-0.386l0.5-0.768l0.25-0.338l0.601-1.153l0.15-0.433l-0.05-0.529l-0.4-0.432l-0.601-0.097l-0.451,0.24
		l-0.3,0.432l-0.15,0.289l-0.451,0.817l-0.4,0.77l-0.25,0.337l-0.251,0.385l-0.25,0.337l-0.601,0.673l-0.65,0.625l-0.351,0.287
		l-0.801,0.481l-0.351,0.192l-0.5,0.192l-0.45,0.096l-0.351,0.049l-0.55,0.047h-0.3l-0.4-0.047l-0.05-0.338l0.25-0.528l0.451-0.865
		l0.3-0.528l0.15-0.433l0.2-0.527l0.201-0.481l0.15-0.482l0.2-0.671l0.3-1.442l0.049-0.481l0.05-0.529l0.101-0.576v-1.685
		l-0.202-0.865l-0.049-0.384l-0.05-0.434l-0.149-0.433l-0.601-1.056l-0.3-0.386l-0.301-0.336l-0.25-0.289l-0.351-0.288l-0.55-0.289
		l-0.901-0.527l-0.399-0.193l-0.451-0.144l-0.451-0.096l-0.65-0.096l-0.801-0.097h-1.15l-0.451,0.049l-0.5,0.048l-0.451,0.096
		l-0.5,0.144l-0.3,0.096l-0.55,0.193l-0.3,0.096l-0.5,0.192l-0.4,0.192l-0.55,0.287l-0.55,0.338l-0.451,0.288l-0.401,0.288
		l-0.35,0.241l-0.702,0.575l-0.65,0.625l-0.3,0.338l-0.501,0.77l-0.3,0.337l-0.248,0.335l-0.301,0.384l-0.25,0.384l-0.301,0.578
		l-0.25,0.575l-0.15,0.434l-0.201,0.384l-0.201,0.432l-0.15,0.432l-0.15,0.385l-0.1,0.434l-0.1,0.48l-0.15,0.865l-0.1,0.433
		l-0.101,0.384l-0.1,0.434v1.345l-0.05,0.434l0.05,0.48l0.1,0.865l0.201,0.866l0.3,0.865l0.25,0.385l0.201,0.383l0.251,0.385
		l0.601,0.672l0.35,0.288l0.801,0.481l0.4,0.193l0.451,0.145l0.351,0.144l0.451,0.145l0.55,0.145l0.901,0.095h0.451l0.55-0.048
		h0.451l0.4-0.047l0.5-0.097l0.3-0.097l0.901-0.144l0.5-0.144l0.9-0.29l0.401-0.191l0.8-0.48l0.401-0.192l0.8-0.481l0.702-0.577
		L105.188,79.464z M95.08,73.985v-0.433l0.049-0.433l0.149-0.433l0.101-0.384l0.3-0.865l0.1-0.385l0.149-0.432l1.001-1.924
		l0.25-0.384l0.5-0.673l0.25-0.386l0.3-0.336l0.251-0.337l0.351-0.337l0.351-0.289l0.5-0.385l0.451-0.287l0.4-0.24l0.5-0.288
		l0.451-0.145l0.4-0.096h0.5l0.65,0.048l0.751,0.144l0.601,0.24l0.4,0.288l0.351,0.481l0.3,0.722l0.2,0.816l0.05,0.77l-0.1,1.635
		l-0.15,0.817l-0.1,0.624l-0.3,1.299l-0.601,1.73l-0.15,0.384l-0.201,0.288l-0.3,0.048l-0.351-0.097l-0.451-0.095l-0.451,0.047
		l-0.4,0.241l-0.351,0.288l-0.2,0.577l-0.1,0.576l0.1,0.432l0.25,0.385l0.2,0.336v0.289l-0.2,0.337l-0.4,0.289l-0.351,0.288
		l-0.4,0.239l-0.451,0.241l-0.4,0.192l-0.451,0.191l-0.5,0.097l-0.5,0.048h-0.65l-0.751-0.192l-0.55-0.241l-0.401-0.336l-0.35-0.481
		l-0.351-0.721l-0.201-0.771l-0.1-0.769l-0.049-0.625l-0.05-0.482l0.05-0.575L95.08,73.985z"/>
	<path fill="#890000" d="M113.685,66.918l-0.5,0.673l-0.3,0.384l-0.2,0.241l-0.301,0.481l-0.25,0.527l-0.3,0.529l-0.401,0.769
		l-0.15,0.432l-0.45,1.155l-0.15,0.433l-0.15,0.479l-0.049,0.288l-0.15,0.482l-0.1,0.433l-0.1,0.624l-0.049,0.577l-0.05,0.481v0.433
		l0.05,0.434v0.623l0.049,0.577l0.05,0.433l0.15,0.433l0.3,0.769l0.149,0.433l0.2,0.385l0.25,0.384l0.451,0.385l0.451,0.433
		l0.4,0.288l0.351,0.191l0.451,0.193l0.4,0.096l0.451,0.098l0.451,0.047l0.4,0.048l0.451-0.048l0.5-0.097l1.151-0.239l0.5-0.144
		l0.4-0.194l0.451-0.287l0.5-0.385l0.451-0.337l1.051-0.865l0.3-0.289l0.551-0.673l0.3-0.336l0.25-0.338l0.45-0.77l0.25-0.385
		l0.252-0.336l0.1,0.049v0.913l0.149,1.297l0.1,0.385l0.149,0.432l0.2,0.386l0.5,0.671l0.351,0.338l0.3,0.239l0.4,0.241l0.401,0.191
		l0.45,0.097l0.451,0.048l0.45-0.048h0.4l0.452-0.097l1.3-0.433l0.401-0.192l0.351-0.192l0.401-0.24l0.35-0.288l0.351-0.384
		l0.201-0.193l0.351-0.384l0.35-0.288l0.3-0.288l0.251-0.337l0.3-0.384l0.251-0.338l0.5-0.77l0.649-1.009l0.3-0.433l0.601-1.153
		l0.201-0.288l0.3-0.626l0.3-0.528l0.251-0.481l0.251-0.576v-0.626l-0.352-0.481l-0.6-0.097l-0.55,0.386l-0.25,0.527l-0.201,0.434
		l-0.201,0.337l-0.25,0.432l-0.501,1.059l-0.25,0.433l-0.2,0.384l-0.251,0.384l-0.701,0.961l-0.5,0.77l-0.501,0.673l-0.35,0.337
		l-0.901,0.77l-0.399,0.24l-0.452,0.144l-0.4,0.096l-0.451-0.047l-0.4-0.145l-0.3-0.288l-0.149-0.432l-0.149-0.577l-0.05-0.626
		l-0.05-0.48v-0.433l0.05-0.433l0.1-0.433l0.05-0.433l0.101-0.575l0.1-0.626l0.1-0.432l0.049-0.433l0.3-1.298l0.1-0.627l0.1-0.574
		l0.101-0.434l0.148-0.528l0.101-0.289l0.201-0.624l0.149-0.626l0.15-0.432l0.1-0.434l0.1-0.383l0.1-0.433l0.15-0.433l0.149-0.384
		l0.149-0.434l0.101-0.431l0.1-0.386l0.1-0.433l0.15-0.384l0.149-0.433l0.15-0.383l0.15-0.434l0.149-0.385l0.1-0.432l0.55-1.586
		l0.149-0.481l0.251-0.576l0.351-1.01l0.149-0.384l0.15-0.432l0.25-0.576l0.202-0.577l0.601-1.538l0.2-0.529l0.201-0.576
		l0.251-0.577l0.149-0.432l0.151-0.384l0.2-0.385l0.201-0.431l0.1-0.433l0.1-0.384l-0.148-0.384l-0.353-0.241l-0.5-0.144l-0.3-0.095
		l-0.5-0.096l-0.45-0.048h-0.5l-0.549,0.192l-0.451,0.337l-0.202,0.385l-0.451,0.816l-0.149,0.385l-0.4,0.865l-0.1,0.288
		l-0.201,0.481l-0.15,0.384l-0.3,0.866l-0.25,0.576l-0.5,1.442l-0.15,0.384l-0.3,0.865l-0.1,0.384l-0.2,0.482l-0.101,0.288
		l-0.149,0.48l-0.352,0.817l-0.149,0.433l-0.1,0.385l-0.3,0.865l-0.1,0.432l-0.201,0.338l-0.3,0.144l-0.352-0.049l-0.549-0.095
		l-0.65-0.097h-1.15l-0.901,0.097l-0.5,0.048l-0.451,0.047l-0.901,0.193l-0.4,0.144l-0.901,0.289l-0.45,0.238l-0.751,0.386
		l-0.45,0.191l-0.4,0.193l-0.351,0.24l-0.401,0.288l-0.351,0.24l-1.05,0.865l-0.601,0.673l-0.351,0.338L113.685,66.918z
		 M124.642,64.898l0.351,0.192l0.15,0.432l-0.1,0.529l-0.15,0.481l-0.149,0.625l-0.4,1.539l-0.202,0.624l-0.701,2.021l-0.149,0.384
		l-0.202,0.433l-0.25,0.528l-0.25,0.576l-0.201,0.433l-0.149,0.385l-0.201,0.432l-0.2,0.384l-0.352,0.433l-0.35,0.577l-0.3,0.432
		l-0.25,0.385l-0.25,0.337l-0.352,0.337l-0.3,0.337l-0.351,0.386l-0.6,0.576l-0.35,0.238l-0.451,0.241l-0.3,0.144l-0.501,0.193
		l-0.6,0.048l-0.6-0.097l-0.452-0.193l-0.35-0.288l-0.3-0.287l-0.25-0.338l-0.15-0.432l-0.1-0.627l-0.1-0.769l-0.1-0.625l0.05-0.481
		l0.049-0.575l0.1-0.627l0.149-0.432l0.3-1.154l0.202-0.433l0.149-0.384l0.149-0.432l0.15-0.386l0.25-0.383l0.601-1.059l0.251-0.433
		l0.251-0.337l0.601-0.721l0.3-0.338l0.3-0.287l0.7-0.577l0.351-0.337l0.351-0.289l0.35-0.239l0.4-0.241l0.451-0.192l0.451-0.144
		l0.5-0.192l0.301-0.096l0.5-0.097l0.452-0.095h0.451l0.951-0.048h0.452L124.642,64.898L124.642,64.898z"/>
	<path fill="#890000" d="M136.695,57.353l-0.1,0.481l-0.05,0.434l0.05,0.432l0.1,0.432l0.251,0.384l0.3,0.337l0.801,0.482l0.5,0.095
		l0.45,0.049l0.5-0.096l0.451-0.193l0.4-0.289l0.352-0.288l0.3-0.385l0.25-0.383l0.151-0.432v-0.482l-0.05-0.432l-0.151-0.433
		l-0.249-0.384l-0.351-0.336l-0.351-0.288l-0.4-0.241l-0.451-0.096h-0.501l-0.45,0.096l-0.5,0.144l-0.402,0.241l-0.399,0.337
		l-0.251,0.384L136.695,57.353z M144.553,71.197l-0.649-0.098l-0.452,0.242l-0.249,0.384l-0.602,1.152l-0.4,0.818l-0.2,0.433
		l-0.3,0.433l-0.25,0.382l-0.2,0.289l-0.3,0.338l-0.501,0.77l-0.299,0.385l-0.251,0.336l-0.301,0.337l-1.649,1.586l-0.402,0.289
		l-0.35,0.239l-0.451,0.194l-0.45,0.047l-0.55-0.145l-0.401-0.528l-0.101-0.72l0.101-0.817l0.15-0.769l0.15-0.626l0.1-0.433
		l0.3-0.865l0.352-1.202l0.1-0.432l0.351-0.817l0.1-0.433l0.101-0.384l0.101-0.433l0.35-1.01l0.202-0.625l0.1-0.433l0.5-1.441
		l0.149-0.577l0.15-0.48l0.1-0.433l0.1-0.385l0.301-0.865l0.15-0.625l0.15-0.577l0.101-0.432v-0.433l-0.251-0.336l-0.8-0.289
		l-0.901-0.096l-0.5-0.049l-0.401,0.049l-0.451,0.191l-0.3,0.242l-0.2,0.384l-0.146,0.433l-0.201,0.626l-0.149,0.576l-0.151,0.433
		l-0.299,1.297l-0.15,0.384l-0.2,0.48l-0.101,0.433l-0.101,0.338l-0.099,0.433l-0.301,0.864l-0.149,0.626l-0.15,0.577l-0.299,0.864
		l-0.101,0.384l-0.1,0.434l-0.151,0.432l-0.099,0.433l-0.05,0.385l-0.451,1.298l-0.15,0.383l-0.149,0.434l-0.1,0.432l-0.15,0.386
		l-0.2,0.864l-0.15,0.433l-0.1,0.433l-0.103,0.865v0.432l0.049,0.434l0.101,0.432l0.099,0.386l0.201,0.431l0.251,0.384l0.251,0.339
		l0.351,0.287l0.399,0.241l0.451,0.144l0.4,0.145l0.55,0.049h0.851l0.901-0.193l0.4-0.096l0.451-0.145l0.451-0.192l0.351-0.239
		l1.101-0.818l0.351-0.287l0.3-0.336l0.352-0.339l0.6-0.626l0.901-1.008l0.5-0.77l0.25-0.338l0.301-0.384l0.249-0.336l0.25-0.386
		l0.252-0.433l0.149-0.289l0.299-0.432l0.202-0.383l0.251-0.433l0.451-0.723l0.399-0.769l0.149-0.432v-0.529L144.553,71.197z"/>
	<path fill="#890000" d="M171.719,71.148l-0.649-0.096l-0.45,0.24l-0.251,0.384l-0.2,0.433l-0.201,0.385l-0.251,0.384l-0.201,0.432
		l-0.201,0.386l-0.501,0.769l-0.25,0.337l-0.25,0.385l-0.251,0.337l-0.751,1.154l-0.301,0.336l-0.25,0.385l-0.301,0.338l-0.4,0.337
		l-0.3,0.338l-0.301,0.239l-0.35,0.337l-0.802,0.481l-0.399,0.192l-0.451,0.096l-0.45-0.049l-0.352-0.191l-0.149-0.386l-0.1-0.385
		v-0.431l0.049-0.482l0.101-0.625l0.1-0.577l0.05-0.479l0.15-0.577l0.15-0.626l0.148-0.431l0.149-0.385l0.101-0.434l0.201-0.624
		l0.201-0.77l0.15-0.626l0.55-1.586l0.2-0.866l0.2-0.432l0.201-0.576l0.149-0.577l0.149-0.432l0.15-0.386l0.149-0.432l0.149-0.624
		l0.15-0.578l0.149-0.48l0.149-0.575l0.352-1.011l0.049-0.433l-0.201-0.337l-0.399-0.24l-0.501-0.145l-0.45-0.047l-0.501,0.047
		l-0.55,0.145l-0.45,0.145l-0.352,0.192l-0.352,0.287l-0.2,0.432l-0.1,0.434l-0.3,0.865l-0.1,0.385l-0.301,0.865l-0.1,0.384
		l-0.15,0.434l-0.1,0.48l-0.101,0.433l-0.15,0.433l-0.149,0.385l-0.149,0.432l-0.1,0.432l-0.15,0.433l-0.101,0.433l-0.201,0.433
		l-0.201,0.383l-0.299,0.386l-0.301,0.48l-0.35,0.53l-0.252,0.383l-0.6,0.673l-0.297,0.288l-0.701,0.576l-0.4,0.239l-0.55,0.338
		l-0.451,0.288l-0.45,0.239l-0.551,0.241l-1.201,0.384l-0.451,0.097l-0.5,0.096l-1.201,0.097l-0.5,0.048h-0.45l-0.45,0.047h-0.9
		l-0.901-0.095l-0.451-0.097l-0.351-0.144l-0.201-0.288l0.05-0.386l0.149-0.479l0.101-0.433l0.1-0.482l0.101-0.432l0.451-1.297
		l0.1-0.482l0.1-0.433l0.149-0.432l0.251-0.337l0.352-0.24l0.399-0.192l0.352-0.193l0.449-0.287l0.251-0.145l0.451-0.288
		l0.352-0.192l0.399-0.239l0.351-0.241l0.35-0.287l0.402-0.241l0.35-0.239l0.351-0.339l1.202-1.056l0.4-0.338l0.649-0.626l0.3-0.336
		l0.251-0.241l0.252-0.336l0.351-0.385l0.249-0.337l0.252-0.385l0.5-0.672l0.3-0.385l0.251-0.337l0.2-0.385l0.251-0.384l0.2-0.338
		l0.201-0.383l0.15-0.433l0.301-0.625l0.3-0.672l0.251-0.625l0.199-0.432l0.101-0.339l0.149-0.431l0.202-0.625l0.101-0.626
		l0.049-0.432l0.1-0.432l0.1-0.866v-0.865l-0.049-0.433l-0.1-0.625l-0.251-0.722l-0.301-0.576l-0.601-0.673l-0.351-0.289
		l-0.55-0.288l-0.55-0.193l-0.55-0.144l-0.601-0.048l-0.602,0.048l-0.45,0.096l-0.451,0.144l-0.4,0.096l-0.8,0.384l-0.4,0.241
		l-0.701,0.481l-0.4,0.288l-0.4,0.384l-0.4,0.432l-0.351,0.385l-0.251,0.337l-0.251,0.384l-0.25,0.433l-0.15,0.24l-0.3,0.433
		l-0.802,1.538l-0.199,0.433l-0.149,0.384l-0.801,1.538l-0.3,0.865l-0.201,0.433l-0.201,0.576l-0.251,0.576l-0.2,0.434l-0.148,0.383
		l-0.15,0.432l-0.149,0.386l-0.302,0.865l-0.1,0.385l-0.3,0.864l-0.149,0.385l-0.201,0.434l-0.1,0.432l-0.149,0.384l-0.101,0.433
		l-0.15,0.433l-0.149,0.385l-0.201,0.864l-0.149,0.385l-0.1,0.433l-0.302,0.865l-0.049,0.384l-0.1,0.433l-0.251,0.866l-0.101,0.383
		l-0.451,1.298l-0.099,0.434l-0.101,0.576l-0.15,0.625l-0.148,0.434l-0.101,0.384l-0.149,0.432l-0.2,0.866l-0.1,0.624l-0.15,0.771
		l-0.15,0.625l-0.1,0.434l-0.149,0.431l-0.1,0.434l-0.101,0.625l-0.05,0.576l-0.1,0.481l-0.202,1.201l-0.101,0.481l-0.1,0.625
		l-0.149,0.77l-0.1,0.626l-0.101,0.48l-0.1,0.576l-0.101,0.626l-0.049,0.432v0.433l-0.049,0.481l-0.05,0.577v3.173l0.05,0.48
		l0.049,0.434l0.101,0.431l0.149,0.385l0.201,0.385l0.25,0.385l0.301,0.337l0.301,0.288l0.3,0.336l0.4,0.241l0.399,0.191
		l1.203,0.289l0.5,0.048h0.55l0.452-0.096l0.35-0.097l0.45-0.097l0.401-0.192l0.45-0.239l0.251-0.192l0.45-0.288l0.352-0.239
		l0.351-0.289l0.301-0.337l0.301-0.289l0.249-0.384l0.25-0.337l0.201-0.384l0.2-0.433l0.201-0.386l0.2-0.432l0.251-0.576
		l0.451-1.298l0.15-0.481l0.1-0.625l0.1-0.577l0.1-0.481l0.049-0.575l0.051-0.625V85.08l-0.051-0.576l-0.049-0.481l-0.05-0.625
		l-0.148-0.77l-0.15-0.625l-0.2-0.434l-0.202-0.575l-0.3-0.625l-0.2-0.385l-0.4-0.673l-0.251-0.385l-0.302-0.336l-0.299-0.385
		l-0.049-0.24l0.3-0.049l0.95,0.049h0.901l0.449-0.049h0.502l0.45-0.048l0.601-0.144l1.05-0.288l1.051-0.337l1.602-0.771l0.4-0.288
		l0.351-0.288l0.3-0.192l0.05,0.049l-0.05,0.288l-0.1,0.432l-0.101,0.481l-0.1,0.626l-0.101,0.577l-0.1,0.48l-0.049,0.432
		l0.148,1.299l0.101,0.385l0.202,0.432l0.2,0.384l0.299,0.288l0.353,0.289l0.45,0.191l0.602,0.145l0.6,0.097l0.501,0.096h0.451
		l0.448-0.048l0.451-0.145l0.401-0.145l0.5-0.239l0.4-0.241l0.3-0.145l0.401-0.24l0.351-0.287l0.401-0.24l0.299-0.24l0.351-0.288
		l0.4-0.434l0.301-0.336l0.249-0.289l0.251-0.336l0.601-0.673l0.251-0.385l0.352-0.384l0.199-0.241l0.3-0.432l0.251-0.385
		l0.201-0.385l0.201-0.432l0.251-0.337l0.25-0.432l0.149-0.288l0.301-0.434l0.25-0.336l0.251-0.386l0.202-0.432l0.199-0.384
		l0.149-0.433v-0.529L171.719,71.148z M154.655,54.708l0.25-0.383l0.2-0.385l0.252-0.385l0.399-0.48l0.401-0.433l0.351-0.337
		l0.401-0.192l0.449-0.047l0.4,0.095l0.25,0.338l0.15,0.577l0.101,0.576v0.482l-0.05,0.431l-0.302,1.298l-0.147,0.385l-0.302,0.865
		l-0.1,0.384l-0.2,0.433l-0.148,0.432l-0.802,1.539l-0.201,0.432l-0.251,0.338l-0.25,0.382l-0.2,0.384l-0.251,0.386l-0.299,0.337
		l-0.252,0.385l-0.251,0.337l-0.249,0.385l-0.901,1.009l-0.4,0.338l-0.2,0.241l-0.4,0.433l-0.2,0.192l-0.3,0.337l-0.3,0.288
		l-0.501,0.432l-0.352,0.338l-0.351,0.191l-0.2-0.144l0.05-0.384l0.2-0.434l0.149-0.384l0.1-0.433l0.15-0.385l0.149-0.431
		l0.201-0.626l0.249-0.722l0.202-0.624l0.351-1.011l0.201-0.529l0.2-0.43l0.2-0.385l0.15-0.433l0.2-0.529l0.353-0.865l0.199-0.529
		l0.15-0.433l0.2-0.384l0.201-0.337l0.2-0.384l0.149-0.432l0.302-0.529L154.655,54.708z M165.164,60.285l0.499,0.096h0.452
		l0.9-0.288l0.451-0.241l0.349-0.288l0.302-0.385l0.251-0.432l0.099-0.432l0.05-0.482l-0.05-0.432l-0.099-0.434l-0.201-0.432
		l-0.352-0.337l-0.35-0.24l-0.452-0.194l-0.45-0.095h-0.5l-0.451,0.095l-0.5,0.194l-0.401,0.24l-0.399,0.288l-0.301,0.385
		l-0.2,0.432l-0.1,0.432l-0.101,0.482l0.05,0.432l0.149,0.432l0.601,0.673l0.351,0.288L165.164,60.285z M148.7,89.127l-0.201,0.771
		l-0.199,0.626l-0.201,0.431l-0.251,0.577l-0.352,0.528l-0.299,0.385l-0.45,0.431l-0.499,0.24l-0.452-0.049l-0.399-0.431
		l-0.251-0.528l-0.15-0.433l-0.049-0.385l-0.05-0.434v-0.912l0.099-0.866v-0.432l0.151-1.299l0.1-0.432l0.05-0.384l0.101-0.433
		v-0.481l0.201-1.058l0.05-0.528l0.148-0.576l0.05-0.385l0.101-0.433l0.049-0.433l0.101-0.433l0.1-0.48l0.201-0.864l0.201-0.577
		l0.101-0.626l0.149-0.337l0.351,0.048l0.4,0.288l0.3,0.337l0.251,0.386l0.2,0.384l0.252,0.337l0.199,0.432l0.202,0.576l0.2,0.771
		l0.1,0.816l0.101,0.625v1.347l-0.05,0.625l-0.051,0.77l-0.1,0.625l-0.101,0.481l-0.149,0.625L148.7,89.127z"/>
	<path fill="#890000" d="M187.111,70.14l0.252-0.433l0.149-0.241l0.199-0.48l0.202-0.575l0.149-0.577l0.049-0.481l0.051-0.626
		v-0.576l-0.051-0.432l-0.1-0.433l-0.149-0.433l-0.25-0.576l-0.301-0.481l-0.302-0.337l-0.7-0.577l-0.299-0.191l-0.402-0.192
		l-0.449-0.192l-0.452-0.145l-0.649-0.144l-0.802-0.144l-0.649-0.097h-1.1l-0.651,0.097l-0.9,0.192l-1.051,0.338l-0.649,0.287
		l-0.451,0.192l-0.501,0.24l-0.5,0.289l-0.451,0.336l-0.5,0.338l-0.45,0.337l-0.4,0.336l-0.752,0.722l-0.751,0.771l-0.3,0.336
		l-0.251,0.337l-0.201,0.433l-0.351,0.482l-0.3,0.529l-0.251,0.431l-0.249,0.577l-0.202,0.528l-0.149,0.432l-0.101,0.433
		l-0.148,0.432l-0.101,0.433l-0.149,0.386l-0.302,1.296v0.434l-0.05,0.432v0.914l0.15,1.298l0.101,0.432l0.101,0.385l0.1,0.433
		l0.15,0.434l0.148,0.384l0.201,0.432l0.201,0.337l0.251,0.384l0.3,0.339l0.352,0.383l0.2,0.241L173,80.909l0.35,0.288l0.401,0.193
		l0.801,0.432l0.399,0.192l0.451,0.191l0.451,0.145l0.4,0.098l1.801,0.19h0.452l0.549-0.047l0.65-0.049l1.051-0.095l0.601-0.146
		l0.65-0.097l0.45-0.144l0.4-0.144l1.25-0.528l0.802-0.482l0.452-0.383l0.499-0.386l0.701-0.576l0.302-0.337l0.35-0.385l0.149-0.191
		l0.352-0.385l0.3-0.336l0.301-0.289l0.3-0.337l0.501-0.674l0.3-0.432l0.149-0.288l0.5-0.769l0.301-0.481l0.299-0.528l0.252-0.529
		l0.301-0.528l0.25-0.528l0.2-0.432l0.05-0.434l-0.251-0.432l-0.45-0.289h-0.451l-0.351,0.24l-0.251,0.386l-0.2,0.384l-0.201,0.432
		l-0.201,0.385l-0.251,0.337l-0.2,0.385l-0.251,0.384l-0.2,0.385l-0.25,0.384l-0.501,0.672l-0.301,0.385l-0.251,0.338l-0.6,0.672
		l-0.701,0.626l-0.351,0.288l-0.351,0.24l-0.701,0.529l-0.801,0.383l-0.852,0.337l-0.4,0.144l-0.451,0.145l-0.45,0.098l-1.302,0.239
		l-0.45,0.048h-0.5l-0.452-0.048l-0.45-0.096l-0.35-0.049l-0.451-0.144l-0.5-0.145l-0.801-0.481l-0.301-0.287l-0.3-0.337
		l-0.501-0.771l-0.3-0.864l-0.1-0.386l-0.05-0.48v-0.817l0.05-0.479v-0.433l0.1-0.338l0.251-0.192h0.35l1.352,0.289l0.451,0.048
		l0.9,0.048l0.901,0.097h0.451l0.45-0.049l0.601-0.096l0.55-0.048l0.501-0.097l0.45-0.049l0.451-0.144l0.5-0.145l0.45-0.191
		l0.301-0.145l0.5-0.288l0.302-0.096l0.449-0.239l0.352-0.242l0.701-0.575l0.601-0.673l0.251-0.337L187.111,70.14z M181.458,64.611
		l0.499-0.097l0.45,0.048l0.452,0.097l0.451,0.191l0.4,0.289l0.3,0.336l0.2,0.434l0.05,0.48l-0.05,0.433l-0.101,0.481l-0.3,0.865
		l-0.251,0.433l-0.201,0.384l-0.25,0.337l-0.301,0.385l-0.351,0.288l-0.351,0.338l-0.352,0.288l-0.349,0.239l-0.502,0.239
		l-0.299,0.098l-0.501,0.191l-0.451,0.097l-0.501,0.095h-1.4l-0.501-0.048l-1.001-0.047l-0.65-0.144l-0.249-0.242l0.049-0.336
		l0.15-0.384l0.2-0.433l0.2-0.576l0.3-0.528l0.251-0.433l0.352-0.481l0.35-0.528l0.351-0.385l0.4-0.432l0.451-0.433l0.701-0.577
		l0.399-0.239l0.602-0.289l0.702-0.289L181.458,64.611z"/>
	<path fill="#890000" d="M190.715,66.918l-0.5,0.673l-0.301,0.384l-0.2,0.241l-0.301,0.481l-0.25,0.527l-0.301,0.529l-0.4,0.769
		l-0.149,0.432l-0.451,1.155l-0.149,0.433l-0.149,0.479l-0.05,0.288l-0.149,0.482l-0.101,0.433l-0.101,0.624l-0.049,0.577
		l-0.05,0.481v0.433l0.05,0.434v0.623l0.049,0.577l0.05,0.433l0.15,0.433l0.299,0.769l0.15,0.433l0.201,0.385l0.251,0.384
		l0.451,0.385l0.45,0.433l0.4,0.288l0.352,0.191l0.45,0.193l0.4,0.096l0.45,0.098l0.45,0.047l0.401,0.048l0.451-0.048l0.499-0.097
		l1.151-0.239l0.5-0.144l0.4-0.194l0.451-0.287l0.501-0.385l0.45-0.337l1.051-0.865l0.3-0.289l0.55-0.673l0.301-0.336l0.251-0.338
		l0.45-0.77l0.251-0.385l0.25-0.336l0.1,0.049v0.913l0.15,1.297l0.1,0.385l0.151,0.432l0.199,0.386l0.501,0.671l0.35,0.338
		l0.301,0.239l0.4,0.241l0.4,0.191l0.45,0.097l0.452,0.048l0.449-0.048h0.4l0.451-0.097l1.301-0.433l0.401-0.192l0.349-0.192
		l0.401-0.24l0.351-0.288l0.352-0.384l0.199-0.193l0.351-0.384l0.352-0.288l0.299-0.288l0.252-0.337l0.3-0.384l0.25-0.338
		l0.501-0.77l0.65-1.009l0.3-0.433l0.6-1.153l0.201-0.288l0.301-0.626l0.3-0.528l0.251-0.481l0.25-0.576v-0.626l-0.35-0.481
		l-0.601-0.097l-0.551,0.386l-0.25,0.527l-0.202,0.434l-0.201,0.337l-0.249,0.432l-0.501,1.059l-0.249,0.433l-0.2,0.384
		l-0.252,0.384l-0.701,0.961l-0.5,0.77l-0.5,0.673l-0.351,0.337l-0.901,0.77l-0.4,0.24l-0.451,0.144l-0.4,0.096l-0.45-0.047
		l-0.401-0.145l-0.3-0.288l-0.149-0.432l-0.148-0.577l-0.051-0.626l-0.051-0.48v-0.433l0.051-0.433l0.101-0.433l0.05-0.433
		l0.101-0.575l0.099-0.626l0.101-0.432l0.049-0.433l0.302-1.298l0.1-0.627l0.101-0.574l0.1-0.434l0.148-0.528l0.101-0.289
		l0.202-0.624l0.149-0.626l0.149-0.432l0.1-0.434l0.1-0.383l0.101-0.433l0.15-0.433l0.149-0.384l0.15-0.434l0.099-0.431l0.101-0.386
		l0.1-0.433l0.15-0.384l0.149-0.433l0.15-0.383l0.149-0.434l0.148-0.385l0.101-0.432l0.55-1.586l0.151-0.481l0.251-0.576l0.349-1.01
		l0.15-0.384l0.15-0.432l0.25-0.576l0.199-0.577l0.603-1.538l0.199-0.529l0.201-0.576l0.251-0.577l0.148-0.432l0.149-0.384
		l0.202-0.385l0.2-0.431l0.101-0.433l0.1-0.384l-0.149-0.384l-0.351-0.241l-0.5-0.144l-0.302-0.095l-0.499-0.096l-0.451-0.048
		h-0.501l-0.549,0.192l-0.452,0.337l-0.199,0.385l-0.452,0.816l-0.149,0.385l-0.4,0.865l-0.101,0.288l-0.199,0.481l-0.149,0.384
		l-0.301,0.866l-0.25,0.576l-0.501,1.442l-0.149,0.384l-0.3,0.865l-0.101,0.384l-0.201,0.482l-0.101,0.288l-0.148,0.48l-0.352,0.817
		l-0.149,0.433l-0.101,0.385l-0.299,0.865l-0.101,0.432l-0.201,0.338l-0.3,0.144l-0.351-0.049l-0.55-0.095l-0.652-0.097h-1.148
		l-0.901,0.097l-0.5,0.048l-0.452,0.047l-0.9,0.193l-0.4,0.144l-0.901,0.289l-0.449,0.238l-0.751,0.386l-0.451,0.191l-0.4,0.193
		l-0.352,0.24l-0.4,0.288l-0.35,0.24l-1.051,0.865l-0.601,0.673l-0.351,0.338L190.715,66.918z M201.673,64.898l0.352,0.192
		l0.149,0.432l-0.1,0.529l-0.15,0.481l-0.149,0.625l-0.4,1.539l-0.2,0.624l-0.701,2.021l-0.149,0.384l-0.202,0.433l-0.251,0.528
		l-0.25,0.576l-0.2,0.433l-0.149,0.385l-0.2,0.432l-0.201,0.384l-0.352,0.433l-0.35,0.577l-0.301,0.432l-0.251,0.385l-0.249,0.337
		l-0.353,0.337l-0.299,0.337l-0.352,0.386l-0.601,0.576l-0.35,0.238l-0.451,0.241l-0.301,0.144l-0.5,0.193l-0.601,0.048
		l-0.601-0.097l-0.451-0.193l-0.35-0.288l-0.301-0.287l-0.251-0.338l-0.149-0.432l-0.101-0.627l-0.1-0.769l-0.101-0.625l0.051-0.481
		l0.049-0.575l0.1-0.627l0.15-0.432l0.3-1.154l0.2-0.433l0.15-0.384l0.15-0.432L192.457,71l0.252-0.383l0.6-1.059l0.251-0.433
		l0.25-0.337l0.601-0.721l0.299-0.338l0.302-0.287l0.702-0.577l0.351-0.337l0.35-0.289l0.352-0.239l0.399-0.241l0.451-0.192
		l0.451-0.144l0.499-0.192l0.302-0.096l0.5-0.097l0.451-0.095h0.45l0.952-0.048h0.451L201.673,64.898L201.673,64.898z"/>
	<path fill="#890000" d="M24.382,49.037l-0.4,0.191l-0.3,0.338l-0.4,0.769l-0.452,1.298l-0.149,0.384l-0.149,0.432l-0.201,0.385
		l-0.15,0.431l-0.149,0.385l-0.202,0.433l-0.149,0.384L21.479,54.9l-0.149,0.384l-0.1,0.432l-0.149,0.482l-0.101,0.287l-0.151,0.482
		L20.679,57.4l-0.3,0.817l-0.201,0.433l-0.1,0.383l-0.3,0.866l-0.15,0.384l-0.3,0.865l-0.1,0.385l-0.149,0.432l-0.251,0.866
		l-0.15,0.432l-0.201,0.867l-0.15,0.575l-0.201,0.625l-0.201,0.867l-0.15,0.432l-0.1,0.432l-0.149,0.433l-0.101,0.432l-0.049,0.433
		l-0.202,0.865l-0.15,0.481l-0.1,0.626l-0.3,1.634l-0.1,0.626l-0.049,0.48l-0.05,0.434v0.432l-0.1,0.865l-0.049,0.481l-0.049,0.434
		v0.432l-0.05,0.433l0.05,0.48l0.049,0.433l0.101,0.385l0.201,0.865l0.15,0.433l0.149,0.385l0.251,0.432l0.25,0.337l0.301,0.385
		l0.35,0.287l0.351,0.338l0.451,0.24l0.4,0.239l1.351,0.434l0.401,0.096l0.451,0.048l1.05,0.097h0.451l1.852-0.192l0.451-0.096
		l0.451-0.144l0.4-0.098l0.451-0.145l0.45-0.191l0.401-0.193l0.351-0.192l0.751-0.432l0.451-0.288l0.4-0.239l0.702-0.577l0.3-0.288
		l0.351-0.241l0.4-0.096l0.9,0.096l0.55,0.049h0.801l0.451-0.049l0.5-0.048l0.451-0.048l0.4-0.097l0.451-0.144l0.851-0.337
		l0.4-0.191l0.351-0.241l0.351-0.337l0.4-0.338l0.351-0.287l0.3-0.241l0.3-0.287l0.3-0.338l0.3-0.384l0.25-0.385l0.3-0.433
		l0.201-0.24l0.3-0.383l0.25-0.386l0.201-0.384l0.25-0.384l0.4-0.77l0.149-0.433l-0.1-0.529l-0.4-0.432l-0.601-0.097l-0.4,0.24
		l-0.25,0.385l-0.149,0.384l-0.251,0.434l-0.201,0.384l-0.251,0.336l-0.5,0.771l-0.3,0.385l-0.25,0.384l-0.251,0.336l-0.701,0.674
		l-0.351,0.24l-0.702,0.576l-0.4,0.241l-0.451,0.143l-0.4,0.145l-0.451,0.146l-0.451,0.047l-0.5,0.048l-0.451,0.049l-0.351-0.097
		l-0.1-0.192l0.15-0.336l0.3-0.385l0.4-0.866l0.201-0.385l0.15-0.431l0.4-0.866l0.1-0.433l0.3-0.865l0.201-0.865l0.049-0.481
		l0.201-0.865l0.05-0.481l0.05-0.434v-0.43l0.049-0.433v-0.432l-0.049-0.434l-0.05-0.481l-0.1-0.433l-0.05-0.383l-0.15-0.434
		l-0.1-0.432l-0.201-0.386l-0.15-0.432l-0.25-0.384l-0.3-0.338l-0.251-0.336l-0.6-0.673l-0.351-0.24l-0.4-0.24l-0.451-0.191
		l-0.401-0.192l-0.9-0.194l-0.5-0.047h-0.65l-0.851,0.047l-0.802,0.144l-0.65,0.097l-0.5,0.145l-0.6,0.191l-0.55,0.241l-0.451,0.191
		l-0.55,0.337l-0.5,0.288l-0.401,0.338l-0.451,0.191l-0.25,0.048l0.05-0.288l0.15-0.433l0.049-0.384l0.15-0.432l0.1-0.433
		l0.15-0.385l0.3-0.866l0.1-0.383l0.15-0.433l0.1-0.433l0.15-0.433l0.201-0.433l0.201-0.575l0.25-0.577l0.301-0.865l0.149-0.385
		l0.1-0.432l0.15-0.433l0.1-0.384l0.3-0.865l0.201-0.384l0.201-0.432l0.202-0.384l0.15-0.385l0.149-0.432l0.149-0.384l0.201-0.482
		l0.101-0.288l0.201-0.482l0.101-0.385l-0.101-0.383l-0.351-0.289l-0.4-0.193l-0.451-0.144l-0.5-0.143l-0.901-0.097L24.382,49.037z
		 M27.485,64.468l0.9,0.095l0.4,0.049l0.451,0.145l0.801,0.384l0.351,0.287l0.25,0.385l0.201,0.385l0.201,0.865l0.05,0.432v1.346
		l-0.15,1.299l-0.1,0.434l-0.05,0.431l-0.1,0.433l-0.451,1.3l-0.149,0.385l-0.101,0.432l-0.15,0.433l-0.201,0.384l-0.201,0.289
		l-0.3,0.096l-0.351-0.096l-0.4-0.048l-0.451,0.096l-0.5,0.337l-0.4,0.432l-0.1,0.481l0.1,0.577l0.25,0.528l0.201,0.383v0.339
		l-0.201,0.288l-0.351,0.288l-0.4,0.24l-0.351,0.239l-0.4,0.289l-0.4,0.191l-0.4,0.145l-0.9,0.192l-0.901,0.095l-0.9-0.095
		l-0.4-0.144l-0.4-0.241l-0.701-0.575l-0.201-0.385l-0.201-0.434l-0.15-0.576l-0.101-0.624v-0.914l-0.049-0.433v-0.433l0.049-0.433
		v-0.433l0.05-0.48l0.101-0.626l0.149-0.575l0.1-0.481l0.101-0.434l0.149-0.432l0.15-0.576l0.15-0.626l0.149-0.432l0.101-0.434
		l0.15-0.383l0.149-0.433l0.15-0.385l0.25-0.336l0.351-0.386l0.251-0.192l0.4-0.337l0.351-0.239l0.751-0.481l0.351-0.241l0.4-0.192
		l0.451-0.192l0.4-0.192l0.5-0.145l0.301-0.096l0.5-0.144L27.485,64.468z"/>
	<path fill="#890000" d="M53.724,70.14l0.25-0.433l0.15-0.241l0.201-0.48l0.201-0.575l0.149-0.577l0.05-0.481l0.05-0.626v-0.576
		l-0.05-0.432l-0.1-0.433l-0.15-0.433l-0.25-0.576l-0.301-0.481l-0.3-0.337l-0.701-0.577l-0.301-0.191l-0.4-0.192l-0.451-0.192
		l-0.451-0.145l-0.65-0.144l-0.801-0.144l-0.65-0.097h-1.103l-0.65,0.097l-0.901,0.192l-1.05,0.338l-0.65,0.287l-0.451,0.192
		l-0.5,0.24l-0.5,0.289l-0.451,0.336l-0.5,0.338l-0.451,0.337l-0.401,0.336l-0.75,0.722l-0.751,0.771l-0.3,0.336l-0.251,0.337
		l-0.2,0.433l-0.351,0.482l-0.3,0.529l-0.251,0.431l-0.25,0.577l-0.201,0.528l-0.149,0.432l-0.101,0.433l-0.15,0.432l-0.1,0.433
		l-0.149,0.381l-0.3,1.298v0.434l-0.05,0.432v0.913l0.149,1.299l0.1,0.432l0.101,0.385l0.1,0.433l0.149,0.433l0.15,0.384l0.2,0.432
		l0.202,0.338l0.25,0.384l0.3,0.338l0.352,0.384l0.201,0.241l0.35,0.335l0.351,0.289l0.4,0.192l0.801,0.432l0.4,0.192l0.451,0.193
		l0.45,0.144l0.4,0.097l1.802,0.192h0.451l0.55-0.048l0.65-0.049l1.05-0.096l0.601-0.145l0.65-0.096l0.451-0.144l0.4-0.145
		l1.252-0.529l0.8-0.481l0.451-0.385l0.5-0.383l0.701-0.577l0.301-0.337l0.35-0.385l0.15-0.19l0.351-0.386l0.3-0.337l0.3-0.288
		l0.3-0.338l0.5-0.671l0.3-0.433l0.15-0.289l0.5-0.769l0.301-0.481l0.3-0.528l0.25-0.53l0.301-0.528l0.25-0.528l0.201-0.432
		l0.05-0.434l-0.25-0.432l-0.451-0.288h-0.451l-0.351,0.24l-0.25,0.385l-0.201,0.384l-0.201,0.433l-0.201,0.385l-0.252,0.337
		l-0.201,0.384l-0.25,0.385l-0.201,0.386l-0.25,0.384l-0.5,0.672l-0.301,0.384l-0.25,0.338l-0.601,0.673l-0.701,0.625l-0.351,0.288
		l-0.351,0.24l-0.701,0.528l-0.801,0.385l-0.851,0.337l-0.4,0.144l-0.451,0.144l-0.45,0.097l-1.302,0.239L46.359,79.8h-0.5
		l-0.451-0.049l-0.451-0.095l-0.351-0.049l-0.451-0.145l-0.5-0.144l-0.801-0.48l-0.3-0.288l-0.301-0.338l-0.496-0.767l-0.3-0.864
		l-0.1-0.386l-0.05-0.48v-0.817l0.05-0.479v-0.433l0.1-0.338l0.25-0.192h0.351l1.351,0.289l0.451,0.048l0.901,0.048l0.9,0.097h0.451
		l0.451-0.049l0.6-0.096l0.55-0.048l0.5-0.097l0.451-0.049l0.451-0.144l0.5-0.145l0.451-0.191l0.301-0.145l0.5-0.288l0.3-0.096
		l0.451-0.239l0.351-0.242l0.702-0.575l0.601-0.673l0.25-0.337L53.724,70.14z M48.07,64.611l0.5-0.097l0.451,0.048l0.451,0.097
		l0.451,0.191l0.4,0.289l0.3,0.336l0.201,0.434l0.05,0.48l-0.05,0.433l-0.1,0.481l-0.3,0.865l-0.25,0.433l-0.201,0.384l-0.25,0.337
		l-0.3,0.385l-0.351,0.288l-0.351,0.338l-0.351,0.288l-0.351,0.239l-0.5,0.239l-0.3,0.098l-0.5,0.191l-0.451,0.097l-0.5,0.095
		h-1.401l-0.5-0.048l-1.001-0.047l-0.65-0.144l-0.25-0.242l0.05-0.336l0.149-0.384l0.201-0.433l0.201-0.576l0.3-0.528l0.251-0.433
		l0.351-0.481l0.35-0.528l0.351-0.385l0.4-0.432l0.451-0.433l0.702-0.577l0.4-0.239l0.601-0.289l0.701-0.289L48.07,64.611z"/>
	<path fill="#890000" d="M60.847,70.684h9.63v2.726h-9.63V70.684z"/>
	<path fill="#890000" d="M11.827,58.446l1.512,1.744l-9.68,8.764l9.882,8.816l-1.714,1.742L1.188,69.978v-1.998L11.827,58.446z"/>
</g>
</svg>
