<?xml version="1.0" encoding="utf-8"?>
<!-- Generated by IcoMoon.io -->
<!DOCTYPE svg PUBLIC "-//W3C//DTD SVG 1.1//EN" "http://www.w3.org/Graphics/SVG/1.1/DTD/svg11.dtd">
<svg version="1.1" xmlns="http://www.w3.org/2000/svg" xmlns:xlink="http://www.w3.org/1999/xlink" width="700" height="700" viewBox="0 0 700 700">
<path d="M554.167 116.667q12.532 0 20.85 8.317t8.317 20.85q0 12.305-8.431 20.735l-183.659 183.431 183.659 183.431q8.431 8.431 8.431 20.735 0 12.532-8.317 20.85t-20.85 8.317q-12.305 0-20.735-8.431l-183.431-183.659-183.431 183.659q-8.431 8.431-20.735 8.431-12.532 0-20.85-8.317t-8.317-20.85q0-12.305 8.431-20.735l183.659-183.431-183.659-183.431q-8.431-8.431-8.431-20.735 0-12.532 8.317-20.85t20.85-8.317q12.305 0 20.735 8.431l183.431 183.659 183.431-183.659q8.431-8.431 20.735-8.431z" fill="#000000"></path>
</svg>
