<?xml version="1.0" encoding="utf-8"?>
<!-- Generator: Adobe Illustrator 16.0.0, SVG Export Plug-In . SVG Version: 6.00 Build 0)  -->
<!DOCTYPE svg PUBLIC "-//W3C//DTD SVG 1.1//EN" "http://www.w3.org/Graphics/SVG/1.1/DTD/svg11.dtd">
<svg version="1.1" id="Layer_1" xmlns="http://www.w3.org/2000/svg" xmlns:xlink="http://www.w3.org/1999/xlink" x="0px" y="0px"
	 width="1399.539px" height="1396.539px" viewBox="0 0 1399.539 1396.539" enable-background="new 0 0 1399.539 1396.539"
	 xml:space="preserve">
<g id="Layer_1_1_" display="none">
	
		<linearGradient id="SVGID_1_" gradientUnits="userSpaceOnUse" x1="123.6006" y1="1134.3325" x2="829.1999" y2="428.7332" gradientTransform="matrix(1.1035 0.0463 -0.0463 -1.1035 221.497 1557.8909)">
		<stop  offset="0" style="stop-color:#000000;stop-opacity:0.5"/>
		<stop  offset="0.839" style="stop-color:#000000;stop-opacity:0"/>
	</linearGradient>
	<polygon display="inline" fill="url(#SVGID_1_)" points="1393.818,846.027 839.519,1400.324 125.923,686.727 582.52,34.729 	"/>
	<rect x="143.298" y="38.297" display="inline" fill="#D7E6F0" width="432.043" height="639.064"/>
	<path display="inline" fill="#B41C1C" d="M529,7H179c-36.269,0-65.625,29.378-65.625,65.625v568.75
		C113.375,677.644,142.753,707,179,707h350c36.225,0,65.625-29.4,65.625-65.625V72.625C594.625,36.356,565.225,7,529,7z
		 M550.875,641.375c0,12.053-9.822,21.875-21.875,21.875H179c-12.075,0-21.875-9.778-21.875-21.875v-43.837h393.75V641.375z
		 M550.875,575.663h-393.75V138.25h393.75V575.663z M550.875,116.375h-393.75v-43.75c0-12.075,9.8-21.875,21.875-21.875h350
		c12.053,0,21.875,9.8,21.875,21.875V116.375z M397.75,83.563c0,6.037-4.922,10.938-10.938,10.938h-65.625
		c-6.059,0-10.938-4.9-10.938-10.938l0,0c0-6.059,4.878-10.938,10.938-10.938h65.625C392.828,72.625,397.75,77.503,397.75,83.563
		L397.75,83.563z M375.875,630.35c0,6.017-4.922,10.938-10.938,10.938h-21.875c-6.038,0-10.938-4.922-10.938-10.938l0,0
		c0-6.059,4.9-10.938,10.938-10.938h21.875C370.953,619.412,375.875,624.29,375.875,630.35L375.875,630.35z"/>
</g>
<path fill="#FFFFFF" d="M1392.446,256.135c-51.083,22.654-105.98,37.968-163.603,44.853c58.81-35.252,103.98-91.076,125.249-157.597
	c-55.044,32.648-116.007,56.351-180.892,69.125c-51.958-55.362-125.992-89.952-207.922-89.952
	c-157.313,0-284.858,127.532-284.858,284.845c0,22.326,2.519,44.068,7.377,64.917C451.058,460.445,241.16,347.042,100.667,174.7
	c-24.52,42.071-38.57,91.002-38.57,143.207c0,98.83,50.288,186.021,126.724,237.102c-46.695-1.48-90.618-14.293-129.021-35.629
	c-0.027,1.187-0.027,2.379-0.027,3.582c0,138.015,98.191,253.142,228.5,279.315c-23.899,6.509-49.067,9.995-75.047,9.995
	c-18.355,0-36.201-1.79-53.596-5.115c36.253,113.163,141.449,195.529,266.1,197.822c-97.488,76.405-220.315,121.94-353.778,121.94
	c-22.992,0-45.666-1.347-67.952-3.986c126.061,80.825,275.792,127.987,436.658,127.987c523.951,0,810.473-434.058,810.473-810.482
	c0-12.349-0.278-24.635-0.826-36.853c55.669-40.162,103.961-90.33,142.147-147.451L1392.446,256.135z"/>
<g id="Layer_4" display="none">
	
		<linearGradient id="SVGID_2_" gradientUnits="userSpaceOnUse" x1="166.7622" y1="1117.4858" x2="872.3609" y2="411.8872" gradientTransform="matrix(1.0091 0.1407 -0.1407 -1.0091 329.3212 1450.068)">
		<stop  offset="0" style="stop-color:#000000;stop-opacity:0.5"/>
		<stop  offset="0.839" style="stop-color:#000000;stop-opacity:0"/>
	</linearGradient>
	<polygon display="inline" fill="url(#SVGID_2_)" points="1379.312,929.531 924.023,1384.818 116.465,573.165 568.015,118.234 	"/>
	<ellipse display="inline" fill="#D7E6F0" cx="352.319" cy="359.822" rx="279.028" ry="274.527"/>
	<path display="inline" fill="#B41C1C" d="M670.716,399.075c1.922-14.219,3.028-28.674,3.028-43.39
		c0-176.579-143.925-319.747-321.43-319.747c-17.642,0-34.938,1.449-51.77,4.211C270.367,20.484,234.451,9.023,195.801,9.023
		C89.813,9.023,4,94.893,4,200.848c0,38.552,11.346,74.367,30.885,104.438c-2.632,16.429-3.977,33.254-3.977,50.393
		c0,176.608,143.851,319.762,321.405,319.762c20.039,0,39.549-1.951,58.51-5.378c29.463,18.278,64.168,28.914,101.371,28.914
		c105.96,0,191.805-85.891,191.805-191.834C703.996,467.093,691.749,429.858,670.716,399.075L670.716,399.075z M382.355,591.338
		c-102.136,5.321-149.931-17.277-193.715-58.367c-48.897-45.892-29.255-98.237,10.582-100.899
		c39.815-2.658,63.721,45.135,84.971,58.428c21.224,13.245,101.984,43.422,144.64-5.343c46.452-53.085-30.89-80.556-87.581-88.87
		c-80.942-11.985-183.135-55.771-175.185-142.06c7.952-86.234,73.257-130.449,141.982-136.686
		c87.605-7.953,144.636,13.271,189.745,51.762c52.158,44.473,23.938,94.191-9.296,98.191c-33.102,3.977-70.279-73.15-143.269-74.309
		c-75.232-1.181-126.078,78.287-33.204,100.877c92.922,22.565,192.432,31.836,228.267,116.781
		c35.86,84.953-55.718,175.171-157.939,180.496H382.355z"/>
</g>
<g id="Layer_2" display="none">
	
		<linearGradient id="SVGID_3_" gradientUnits="userSpaceOnUse" x1="75.0444" y1="1177.4956" x2="906.1662" y2="346.3737" gradientTransform="matrix(1 0 0 -1 219 1460.0381)">
		<stop  offset="0" style="stop-color:#000000;stop-opacity:0.5"/>
		<stop  offset="0.839" style="stop-color:#000000;stop-opacity:0"/>
	</linearGradient>
	<polygon display="inline" fill="url(#SVGID_3_)" points="1387.314,851.517 863.019,1375.812 31.897,544.69 681.724,145.927 	"/>
	<rect x="37.288" y="142.298" display="inline" fill="#D7E6F0" width="639.063" height="399.04"/>
	<path display="inline" fill="#B41C1C" d="M616.5,113.375h-525c-48.322,0-87.5,39.2-87.5,87.5V485.25
		c0,48.322,39.178,87.5,87.5,87.5h525c48.322,0,87.5-39.178,87.5-87.5V200.875C704,152.575,664.822,113.375,616.5,113.375z
		 M47.75,228.219l153.103,114.844L47.75,457.907V228.219L47.75,228.219z M660.25,485.25c0,24.15-19.644,43.75-43.75,43.75h-525
		c-24.128,0-43.75-19.6-43.75-43.75l171.325-128.516l95.55,71.684c11.659,8.706,25.506,13.125,39.375,13.125
		c13.847,0,27.694-4.396,39.353-13.125l95.572-71.684L660.25,485.25z M660.25,457.906L507.125,343.062L660.25,228.218V457.906z
		 M380.228,410.919c-7.634,5.731-16.691,8.75-26.228,8.75s-18.616-3.041-26.25-8.75l-280-210.044c0-24.128,19.622-43.75,43.75-43.75
		h525c24.106,0,43.75,19.622,43.75,43.75L380.228,410.919z"/>
</g>
</svg>
