<?xml version="1.0" encoding="utf-8"?>
<!-- Generator: Adobe Illustrator 17.0.0, SVG Export Plug-In . SVG Version: 6.00 Build 0)  -->
<!DOCTYPE svg PUBLIC "-//W3C//DTD SVG 1.1//EN" "http://www.w3.org/Graphics/SVG/1.1/DTD/svg11.dtd">
<svg version="1.1" id="Layer_1" xmlns="http://www.w3.org/2000/svg" xmlns:xlink="http://www.w3.org/1999/xlink" x="0px" y="0px"
	 width="700px" height="700px" viewBox="0 0 700 700" enable-background="new 0 0 700 700" xml:space="preserve">
<path fill="#FFFFFF" d="M699.234,345.1c-0.219-0.919-0.087-1.903-0.438-2.8c-0.131-0.372-0.459-0.569-0.591-0.919
	c-0.219-0.525-0.175-1.116-0.459-1.619c-63.437-121.428-201.534-208.425-347.222-208.425c-145.709,0-283.784,86.866-347.266,208.272
	c-0.284,0.503-0.241,1.094-0.459,1.619c-0.153,0.35-0.459,0.547-0.591,0.919c-0.35,0.897-0.219,1.881-0.438,2.8
	c-0.394,1.641-0.766,3.216-0.766,4.9s0.394,3.238,0.766,4.9c0.219,0.919,0.088,1.903,0.438,2.8c0.131,0.372,0.459,0.569,0.591,0.919
	c0.219,0.525,0.175,1.116,0.459,1.619C66.717,481.513,204.814,568.51,350.524,568.51c145.688,0,283.784-86.866,347.222-208.272
	c0.306-0.503,0.263-1.094,0.459-1.619c0.131-0.35,0.459-0.547,0.591-0.919c0.35-0.897,0.219-1.881,0.438-2.8
	c0.372-1.662,0.766-3.237,0.766-4.9S699.606,346.741,699.234,345.1L699.234,345.1z M350.503,534.737
	c-122.828,0-253.075-79.803-312.991-184.891c60.244-105.219,190.316-184.781,312.991-184.781
	c122.784,0,253.053,79.825,312.969,184.891C603.228,455.197,473.178,534.737,350.503,534.737z M350,196.875
	c-84.591,0-153.125,68.556-153.125,153.125S265.431,503.125,350,503.125c84.547,0,153.125-68.578,153.125-153.125
	C503.125,265.409,434.547,196.875,350,196.875z M350,481.25c-72.384,0-131.25-58.866-131.25-131.25S277.616,218.75,350,218.75
	S481.25,277.616,481.25,350S422.384,481.25,350,481.25z"/>
</svg>
