<?xml version="1.0" encoding="utf-8"?>
<!-- Generator: Adobe Illustrator 17.0.0, SVG Export Plug-In . SVG Version: 6.00 Build 0)  -->
<!DOCTYPE svg PUBLIC "-//W3C//DTD SVG 1.1//EN" "http://www.w3.org/Graphics/SVG/1.1/DTD/svg11.dtd">
<svg version="1.1" xmlns="http://www.w3.org/2000/svg" xmlns:xlink="http://www.w3.org/1999/xlink" x="0px" y="0px"
	 width="1399.538px" height="1396.538px" viewBox="0 0 1399.538 1396.538" enable-background="new 0 0 1399.538 1396.538"
	 xml:space="preserve">
<g id="Layer_1" display="none">
	
		<linearGradient id="SVGID_1_" gradientUnits="userSpaceOnUse" x1="301.5663" y1="278.0701" x2="1007.1571" y2="983.6609" gradientTransform="matrix(1.1035 0.0463 0.0463 1.1035 -40.2859 -8.9383)">
		<stop  offset="0" style="stop-color:#000000;stop-opacity:0.5"/>
		<stop  offset="0.839" style="stop-color:#000000;stop-opacity:0"/>
	</linearGradient>
	<polygon display="inline" fill="url(#SVGID_1_)" points="1393.817,846.026 839.519,1400.323 125.923,686.727 582.52,34.729 	"/>
	<rect x="143.298" y="38.297" display="inline" fill="#D7E6F0" width="432.043" height="639.064"/>
	<path display="inline" fill="#B41C1C" d="M529,7H179c-36.269,0-65.625,29.378-65.625,65.625v568.75
		C113.375,677.644,142.753,707,179,707h350c36.225,0,65.625-29.4,65.625-65.625V72.625C594.625,36.356,565.225,7,529,7z
		 M550.875,641.375c0,12.053-9.822,21.875-21.875,21.875H179c-12.075,0-21.875-9.778-21.875-21.875v-43.837h393.75V641.375z
		 M550.875,575.663h-393.75V138.25h393.75V575.663z M550.875,116.375h-393.75v-43.75c0-12.075,9.8-21.875,21.875-21.875h350
		c12.053,0,21.875,9.8,21.875,21.875V116.375z M397.75,83.563c0,6.037-4.922,10.938-10.938,10.938h-65.625
		c-6.059,0-10.938-4.9-10.938-10.938l0,0c0-6.059,4.878-10.938,10.938-10.938h65.625C392.828,72.625,397.75,77.503,397.75,83.563
		L397.75,83.563z M375.875,630.35c0,6.016-4.922,10.938-10.938,10.938h-21.875c-6.038,0-10.938-4.922-10.938-10.938l0,0
		c0-6.059,4.9-10.938,10.938-10.938h21.875C370.953,619.412,375.875,624.29,375.875,630.35L375.875,630.35z"/>
</g>
<g id="Layer_3" display="none">
	<linearGradient id="SVGID_2_" gradientUnits="userSpaceOnUse" x1="302.1659" y1="283.8158" x2="1104.5613" y2="1086.2113">
		<stop  offset="0" style="stop-color:#000000;stop-opacity:0.5"/>
		<stop  offset="0.839" style="stop-color:#000000;stop-opacity:0"/>
	</linearGradient>
	<path display="inline" fill="url(#SVGID_2_)" d="M683.5,80.5L209.038,424.507C243.683,441.812,265.5,466.98,265.5,495
		c0,52.191-75.664,94.5-169,94.5c-31.68,0-61.319-4.879-86.659-13.359l802.395,802.396l582.8-582.8L683.5,80.5z"/>
	<path display="inline" fill="#B41C1C" d="M704,136.903c-25.755,11.421-53.432,19.142-82.482,22.613
		c29.649-17.773,52.422-45.917,63.145-79.454c-27.751,16.46-58.486,28.41-91.198,34.85c-26.195-27.911-63.521-45.35-104.826-45.35
		c-79.312,0-143.615,64.297-143.615,143.608c0,11.256,1.27,22.217,3.719,32.729c-119.355-5.991-225.177-63.164-296.008-150.053
		c-12.362,21.211-19.446,45.88-19.446,72.2c0,49.826,25.353,93.784,63.889,119.537c-23.542-0.746-45.686-7.206-65.047-17.963
		c-0.014,0.599-0.014,1.2-0.014,1.806c0,69.582,49.504,127.624,115.201,140.82c-12.049,3.281-24.738,5.039-37.836,5.039
		c-9.254,0-18.251-0.902-27.021-2.579c18.277,57.053,71.313,98.578,134.157,99.734c-49.15,38.521-111.074,61.478-178.361,61.478
		c-11.592,0-23.023-0.679-34.259-2.01c63.555,40.749,139.044,64.527,220.146,64.527c264.156,0,408.609-218.835,408.609-408.614
		c0-6.226-0.141-12.42-0.417-18.58c28.066-20.248,52.413-45.541,71.665-74.339L704,136.903z"/>
</g>
<g id="Layer_4">
	
		<linearGradient id="SVGID_3_" gradientUnits="userSpaceOnUse" x1="332.1839" y1="307.4622" x2="1037.7748" y2="1013.053" gradientTransform="matrix(1.0091 0.1407 0.1407 1.0091 -38.0993 -11.1249)">
		<stop  offset="0" style="stop-color:#000000;stop-opacity:0.5"/>
		<stop  offset="0.839" style="stop-color:#000000;stop-opacity:0"/>
	</linearGradient>
	<polygon fill="url(#SVGID_3_)" points="1379.312,929.531 924.024,1384.818 116.465,573.165 568.015,118.234 	"/>
	<ellipse fill="#D7E6F0" cx="352.319" cy="359.822" rx="279.028" ry="274.527"/>
	<path fill="#B41C1C" d="M670.716,399.075c1.922-14.219,3.028-28.674,3.028-43.389c0-176.579-143.925-319.747-321.43-319.747
		c-17.642,0-34.938,1.449-51.77,4.211C270.367,20.484,234.451,9.023,195.801,9.023C89.813,9.023,4,94.893,4,200.848
		c0,38.552,11.346,74.367,30.885,104.438c-2.632,16.429-3.977,33.254-3.977,50.393c0,176.608,143.851,319.761,321.405,319.761
		c20.039,0,39.549-1.951,58.51-5.377c29.463,18.278,64.168,28.913,101.371,28.913c105.96,0.001,191.805-85.891,191.805-191.834
		C703.995,467.093,691.749,429.858,670.716,399.075L670.716,399.075z M382.355,591.338
		c-102.136,5.321-149.931-17.277-193.715-58.367c-48.897-45.892-29.255-98.238,10.582-100.9
		c39.815-2.658,63.721,45.135,84.971,58.428c21.224,13.245,101.984,43.422,144.64-5.343c46.452-53.085-30.89-80.555-87.581-88.87
		c-80.942-11.985-183.135-55.77-175.185-142.06c7.952-86.234,73.257-130.449,141.982-136.686
		c87.605-7.953,144.636,13.271,189.745,51.762c52.158,44.473,23.937,94.191-9.296,98.191c-33.102,3.977-70.279-73.15-143.269-74.309
		c-75.232-1.181-126.078,78.287-33.204,100.877c92.922,22.565,192.432,31.836,228.267,116.781
		c35.86,84.953-55.718,175.171-157.939,180.496H382.355z"/>
</g>
<g id="Layer_2" display="none">
	<linearGradient id="SVGID_4_" gradientUnits="userSpaceOnUse" x1="294.0445" y1="282.5426" x2="1125.1672" y2="1113.6654">
		<stop  offset="0" style="stop-color:#000000;stop-opacity:0.5"/>
		<stop  offset="0.839" style="stop-color:#000000;stop-opacity:0"/>
	</linearGradient>
	<polygon display="inline" fill="url(#SVGID_4_)" points="1387.314,851.518 863.02,1375.813 31.897,544.69 681.724,145.927 	"/>
	<rect x="37.288" y="142.298" display="inline" fill="#D7E6F0" width="639.064" height="399.04"/>
	<path display="inline" fill="#B41C1C" d="M616.5,113.375h-525c-48.322,0-87.5,39.2-87.5,87.5V485.25
		c0,48.322,39.178,87.5,87.5,87.5h525c48.322,0,87.5-39.178,87.5-87.5V200.875C704,152.575,664.822,113.375,616.5,113.375z
		 M47.75,228.219l153.103,114.844L47.75,457.907V228.219L47.75,228.219z M660.25,485.25c0,24.15-19.644,43.75-43.75,43.75h-525
		c-24.128,0-43.75-19.6-43.75-43.75l171.325-128.516l95.55,71.684c11.659,8.706,25.506,13.125,39.375,13.125
		c13.847,0,27.694-4.397,39.353-13.125l95.572-71.684L660.25,485.25z M660.25,457.906L507.125,343.062L660.25,228.218V457.906z
		 M380.228,410.919c-7.634,5.731-16.691,8.75-26.228,8.75s-18.616-3.041-26.25-8.75l-280-210.044c0-24.128,19.622-43.75,43.75-43.75
		h525c24.106,0,43.75,19.622,43.75,43.75L380.228,410.919z"/>
</g>
</svg>
