<?xml version="1.0" encoding="utf-8"?>
<!-- Generator: Adobe Illustrator 16.0.0, SVG Export Plug-In . SVG Version: 6.00 Build 0)  -->
<!DOCTYPE svg PUBLIC "-//W3C//DTD SVG 1.1//EN" "http://www.w3.org/Graphics/SVG/1.1/DTD/svg11.dtd">
<svg version="1.1" id="Layer_1" xmlns="http://www.w3.org/2000/svg" xmlns:xlink="http://www.w3.org/1999/xlink" x="0px" y="0px"
	 width="1399.539px" height="1396.539px" viewBox="0 0 1399.539 1396.539" enable-background="new 0 0 1399.539 1396.539"
	 xml:space="preserve">
<g id="Layer_1_1_" display="none">
	
		<linearGradient id="SVGID_1_" gradientUnits="userSpaceOnUse" x1="123.6006" y1="1134.3325" x2="829.1999" y2="428.7332" gradientTransform="matrix(1.1035 0.0463 -0.0463 -1.1035 221.497 1557.8909)">
		<stop  offset="0" style="stop-color:#000000;stop-opacity:0.5"/>
		<stop  offset="0.839" style="stop-color:#000000;stop-opacity:0"/>
	</linearGradient>
	<polygon display="inline" fill="url(#SVGID_1_)" points="1393.818,846.027 839.519,1400.324 125.923,686.727 582.52,34.729 	"/>
	<rect x="143.298" y="38.297" display="inline" fill="#D7E6F0" width="432.043" height="639.064"/>
	<path display="inline" fill="#B41C1C" d="M529,7H179c-36.269,0-65.625,29.378-65.625,65.625v568.75
		C113.375,677.644,142.753,707,179,707h350c36.225,0,65.625-29.4,65.625-65.625V72.625C594.625,36.356,565.225,7,529,7z
		 M550.875,641.375c0,12.053-9.822,21.875-21.875,21.875H179c-12.075,0-21.875-9.778-21.875-21.875v-43.837h393.75V641.375z
		 M550.875,575.663h-393.75V138.25h393.75V575.663z M550.875,116.375h-393.75v-43.75c0-12.075,9.8-21.875,21.875-21.875h350
		c12.053,0,21.875,9.8,21.875,21.875V116.375z M397.75,83.563c0,6.037-4.922,10.938-10.938,10.938h-65.625
		c-6.059,0-10.938-4.9-10.938-10.938l0,0c0-6.059,4.878-10.938,10.938-10.938h65.625C392.828,72.625,397.75,77.503,397.75,83.563
		L397.75,83.563z M375.875,630.35c0,6.017-4.922,10.938-10.938,10.938h-21.875c-6.038,0-10.938-4.922-10.938-10.938l0,0
		c0-6.059,4.9-10.938,10.938-10.938h21.875C370.953,619.412,375.875,624.29,375.875,630.35L375.875,630.35z"/>
</g>
<g id="Layer_3" display="none">
	
		<linearGradient id="SVGID_2_" gradientUnits="userSpaceOnUse" x1="83.1655" y1="1176.2222" x2="885.5624" y2="373.8251" gradientTransform="matrix(1 0 0 -1 219 1460.0381)">
		<stop  offset="0" style="stop-color:#000000;stop-opacity:0.5"/>
		<stop  offset="0.839" style="stop-color:#000000;stop-opacity:0"/>
	</linearGradient>
	<path display="inline" fill="url(#SVGID_2_)" d="M683.5,80.5L209.038,424.507C243.683,441.812,265.5,466.98,265.5,495
		c0,52.191-75.664,94.5-169,94.5c-31.68,0-61.319-4.879-86.659-13.359l802.395,802.396l582.801-582.799L683.5,80.5z"/>
	<path display="inline" fill="#B41C1C" d="M704,136.903c-25.754,11.421-53.431,19.142-82.482,22.613
		c29.649-17.773,52.423-45.917,63.146-79.454c-27.751,16.46-58.486,28.41-91.198,34.85c-26.195-27.911-63.521-45.35-104.826-45.35
		c-79.312,0-143.615,64.297-143.615,143.608c0,11.256,1.27,22.217,3.719,32.729c-119.355-5.991-225.177-63.164-296.008-150.053
		c-12.362,21.211-19.446,45.88-19.446,72.2c0,49.826,25.353,93.784,63.889,119.537c-23.542-0.746-45.686-7.206-65.047-17.963
		c-0.014,0.599-0.014,1.2-0.014,1.806c0,69.582,49.504,127.624,115.201,140.82c-12.049,3.281-24.738,5.039-37.836,5.039
		c-9.254,0-18.251-0.902-27.021-2.579c18.277,57.053,71.313,98.578,134.157,99.734c-49.15,38.521-111.074,61.478-178.361,61.478
		c-11.592,0-23.023-0.679-34.259-2.01c63.555,40.749,139.044,64.526,220.146,64.526c264.156,0,408.609-218.835,408.609-408.614
		c0-6.226-0.141-12.42-0.417-18.58c28.066-20.248,52.413-45.541,71.666-74.339L704,136.903z"/>
</g>
<path fill="#FFFFFF" d="M1323.047,780.712c3.802-28.131,5.991-56.729,5.991-85.843c0-349.348-284.744-632.595-635.925-632.595
	c-34.904,0-69.123,2.867-102.423,8.331C530.987,31.698,459.93,9.023,383.463,9.023C173.774,9.023,4,178.911,4,388.535
	c0,76.272,22.448,147.129,61.103,206.623c-5.207,32.503-7.867,65.79-7.867,99.698c0,349.407,284.598,632.625,635.875,632.625
	c39.646,0,78.245-3.86,115.758-10.64c58.29,36.162,126.951,57.203,200.555,57.203c209.634,0,379.473-169.929,379.473-379.53
	C1388.889,915.28,1364.66,841.615,1323.047,780.712L1323.047,780.712z M752.547,1161.089
	c-202.069,10.528-296.628-34.182-383.25-115.475c-96.739-90.793-57.88-194.355,20.936-199.622
	c78.771-5.259,126.067,89.296,168.108,115.595c41.991,26.204,201.768,85.907,286.16-10.57
	c91.901-105.024-61.114-159.373-173.273-175.823c-160.137-23.712-362.318-110.337-346.59-281.055
	c15.733-170.607,144.934-258.084,280.9-270.423c173.321-15.734,286.151,26.256,375.396,102.408
	c103.191,87.986,47.358,186.35-18.391,194.264c-65.489,7.868-139.043-144.722-283.447-147.015
	c-148.841-2.337-249.437,154.885-65.692,199.578c183.839,44.643,380.712,62.986,451.609,231.042
	c70.947,168.073-110.233,346.562-312.47,357.098H752.547z"/>
<g id="Layer_2" display="none">
	
		<linearGradient id="SVGID_3_" gradientUnits="userSpaceOnUse" x1="75.0444" y1="1177.4956" x2="906.1662" y2="346.3737" gradientTransform="matrix(1 0 0 -1 219 1460.0381)">
		<stop  offset="0" style="stop-color:#000000;stop-opacity:0.5"/>
		<stop  offset="0.839" style="stop-color:#000000;stop-opacity:0"/>
	</linearGradient>
	<polygon display="inline" fill="url(#SVGID_3_)" points="1387.314,851.517 863.019,1375.812 31.897,544.69 681.724,145.927 	"/>
	<rect x="37.288" y="142.298" display="inline" fill="#D7E6F0" width="639.063" height="399.04"/>
	<path display="inline" fill="#B41C1C" d="M616.5,113.375h-525c-48.322,0-87.5,39.2-87.5,87.5V485.25
		c0,48.322,39.178,87.5,87.5,87.5h525c48.322,0,87.5-39.178,87.5-87.5V200.875C704,152.575,664.822,113.375,616.5,113.375z
		 M47.75,228.219l153.103,114.844L47.75,457.907V228.219L47.75,228.219z M660.25,485.25c0,24.15-19.644,43.75-43.75,43.75h-525
		c-24.128,0-43.75-19.6-43.75-43.75l171.325-128.516l95.55,71.684c11.659,8.706,25.506,13.125,39.375,13.125
		c13.847,0,27.694-4.396,39.353-13.125l95.572-71.684L660.25,485.25z M660.25,457.906L507.125,343.062L660.25,228.218V457.906z
		 M380.228,410.919c-7.634,5.731-16.691,8.75-26.228,8.75s-18.616-3.041-26.25-8.75l-280-210.044c0-24.128,19.622-43.75,43.75-43.75
		h525c24.106,0,43.75,19.622,43.75,43.75L380.228,410.919z"/>
</g>
</svg>
