<?xml version="1.0" encoding="UTF-8"?>
<svg width="1390px" height="1356px" viewBox="0 0 1390 1356" version="1.1" xmlns="http://www.w3.org/2000/svg" xmlns:xlink="http://www.w3.org/1999/xlink">
    <!-- Generator: Sketch 54.1 (76490) - https://sketchapp.com -->
    <title>Fill 4</title>
    <desc>Created with Sketch.</desc>
    <g id="Page-1" stroke="none" stroke-width="1" fill="none" fill-rule="evenodd">
        <path d="M694.936002,0 C311.202308,0 0,311.159643 0,695.021333 C0,1002.08509 199.119985,1262.55809 475.293901,1354.45962 C510.0663,1360.85945 522.73796,1339.39869 522.73796,1320.96719 C522.73796,1304.4983 522.140643,1260.76614 521.799319,1202.7837 C328.481844,1244.76657 287.693606,1109.6022 287.693606,1109.6022 C256.078455,1029.30569 210.511679,1007.93026 210.511679,1007.93026 C147.409374,964.838086 215.290218,965.691396 215.290218,965.691396 C285.048344,970.597931 321.740692,1037.32681 321.740692,1037.32681 C383.733693,1143.52129 484.424322,1112.84478 524.017926,1095.05326 C530.332423,1050.16913 548.294607,1019.53528 568.134074,1002.17042 C413.812886,984.634888 251.55591,924.98849 251.55591,658.670309 C251.55591,582.811013 278.648516,520.732681 323.105989,472.179318 C315.938181,454.601123 292.088155,383.904356 329.932472,288.248258 C329.932472,288.248258 388.256239,269.56076 521.031339,359.499678 C576.453851,344.054759 635.929587,336.374965 695.021333,336.076307 C754.070413,336.374965 813.503484,344.054759 869.011326,359.499678 C1001.7011,269.56076 1059.93953,288.248258 1059.93953,288.248258 C1097.86918,383.904356 1074.01915,454.601123 1066.89401,472.179318 C1111.43682,520.732681 1138.31609,582.811013 1138.31609,658.670309 C1138.31609,925.671138 975.803125,984.42156 821.012615,1001.61576 C845.92928,1023.07652 868.158016,1065.48605 868.158016,1130.33764 C868.158016,1223.22048 867.304705,1298.1838 867.304705,1320.96719 C867.304705,1339.56935 879.848369,1361.20077 915.090089,1354.41696 C1191.05068,1262.3021 1390,1001.99975 1390,695.021333 C1390,311.159643 1078.79769,0 694.936002,0" id="Fill-4" fill="#FFFFFF"></path>
    </g>
</svg>